<?xml version="1.0" encoding="utf-8"?>
<!-- Generator: Adobe Illustrator 23.0.4, SVG Export Plug-In . SVG Version: 6.00 Build 0)  -->
<svg version="1.1" id="Layer_1" xmlns="http://www.w3.org/2000/svg" xmlns:xlink="http://www.w3.org/1999/xlink" x="0px" y="0px"
	 viewBox="0 0 145 100" style="enable-background:new 0 0 145 100;" xml:space="preserve">
<style type="text/css">
	.st0{fill:#0000FF;}
	.st1{fill:#FFFFFF;}
</style>
<g>
	<path class="st0" d="M144.99,34.03c0-0.03-0.01-0.06-0.01-0.1c0-0.03-0.01-0.07-0.01-0.1c-0.01-0.03-0.01-0.07-0.02-0.1
		c-0.01-0.03-0.01-0.06-0.02-0.09c-0.01-0.04-0.02-0.08-0.03-0.12c-0.01-0.02-0.02-0.05-0.02-0.07c-0.02-0.05-0.04-0.09-0.05-0.13
		c-0.01-0.02-0.01-0.03-0.02-0.05c-0.02-0.05-0.05-0.1-0.08-0.15c-0.01-0.01-0.01-0.02-0.02-0.03c-0.03-0.05-0.06-0.1-0.09-0.14
		c-0.01-0.01-0.01-0.02-0.02-0.03c-0.02-0.03-0.05-0.06-0.08-0.1c-0.02-0.02-0.03-0.05-0.05-0.07c0,0,0,0,0-0.01
		c-0.87-1-1.77-1.97-2.68-2.93c-8.35-8.8-18.12-15.85-29.1-20.96C100.06,2.98,86.57,0,72.58,0C58.55,0,45.02,2.99,32.38,8.9
		c-11.02,5.14-20.8,12.23-29.16,21.09c-0.9,0.96-1.8,1.93-2.67,2.93c0,0-0.01,0.01-0.01,0.01c-0.05,0.05-0.09,0.11-0.13,0.17
		c-0.04,0.05-0.07,0.11-0.11,0.16c0,0.01-0.01,0.02-0.01,0.02c-0.03,0.05-0.06,0.1-0.08,0.16c-0.01,0.02-0.01,0.03-0.02,0.05
		c-0.02,0.04-0.04,0.09-0.05,0.14c-0.01,0.03-0.02,0.05-0.02,0.08c-0.01,0.04-0.02,0.08-0.03,0.11c-0.01,0.03-0.01,0.06-0.02,0.1
		c-0.01,0.03-0.01,0.07-0.02,0.1c-0.01,0.04-0.01,0.07-0.01,0.11c0,0.03-0.01,0.06-0.01,0.09c0,0.04,0,0.07,0,0.11
		c0,0.03,0,0.07,0,0.1c0,0.03,0,0.07,0,0.1c0,0.04,0.01,0.08,0.01,0.12c0,0.03,0.01,0.06,0.01,0.09c0.01,0.05,0.02,0.1,0.03,0.15
		c0,0.01,0.01,0.03,0.01,0.04l0.01,0.02l0,0l1.36,5.28l6.83,26.47l0.99,3.84c0,0,0,0,0,0.01c0.03,0.11,0.07,0.22,0.11,0.32
		c0.01,0.01,0.01,0.02,0.02,0.04c0.04,0.1,0.1,0.19,0.15,0.28c0.01,0.02,0.02,0.04,0.04,0.05c0.05,0.07,0.1,0.14,0.16,0.2
		c0.02,0.02,0.03,0.03,0.05,0.05c0,0,0,0,0,0c0.86,0.98,1.75,1.94,2.65,2.88C28.14,90.71,49.79,100,72.43,100
		c22.73,0,44.43-9.35,60.15-25.78c0.9-0.94,1.78-1.9,2.64-2.88c0,0,0,0,0,0c0.02-0.02,0.03-0.04,0.05-0.06
		c0.06-0.06,0.11-0.13,0.15-0.2c0.01-0.02,0.02-0.04,0.03-0.05c0.06-0.09,0.11-0.18,0.15-0.28c0.01-0.01,0.01-0.02,0.01-0.03
		c0.05-0.1,0.08-0.21,0.11-0.33c0,0,0,0,0,0l0.99-3.84l6.83-26.48l1.37-5.31l0-0.01l0-0.02c0-0.01,0-0.02,0.01-0.04
		c0.01-0.05,0.02-0.11,0.03-0.16c0-0.03,0.01-0.06,0.01-0.08c0-0.04,0.01-0.08,0.01-0.12c0-0.03,0-0.07,0-0.1c0-0.03,0-0.07,0-0.1
		C145,34.1,145,34.07,144.99,34.03z M137.56,45.93l-4.35,16.87l-0.68,2.62c-0.62-0.65-1.25-1.28-1.89-1.91
		c-2.46-2.4-4.18-3.91-6.89-5.97c-1.36,0.82-2.74,1.61-4.14,2.36c3.79,2.74,6.47,5.11,9.76,8.52c0.45,0.47,0.9,0.94,1.34,1.42
		c-0.44,0.48-0.88,0.95-1.32,1.41c-14.9,15.54-35.45,24.38-56.97,24.38c-21.44,0-41.93-8.78-56.82-24.22
		c-0.45-0.46-0.89-0.93-1.33-1.41c0.44-0.48,0.89-0.95,1.33-1.42c3.3-3.43,5.89-5.92,9.68-8.67c-1.4-0.75-2.78-1.53-4.14-2.35
		c-2.72,2.07-4.34,3.7-6.81,6.11c-0.64,0.63-1.27,1.27-1.89,1.92l-0.68-2.63L7.43,46.06l-1.07-4.16c1.02,0.99,2.06,1.95,3.13,2.89
		c3.92,3.45,8.1,6.56,12.53,9.32c0.71,0.44,1.43,0.88,2.16,1.31c1.39,0.82,2.81,1.6,4.25,2.35c0.79,0.41,1.59,0.81,2.4,1.21
		c0.51,0.25,1.01,0.49,1.52,0.73c2.93,1.37,5.92,2.57,8.94,3.62c0.91,0.32,1.82,0.62,2.74,0.9c1.79,0.56,3.59,1.07,5.41,1.52
		c0.22,0.05,0.43,0.1,0.65,0.15c-1.57-2.87-2.62-6.09-3-9.54c-1.58-14.14,8.51-26.88,22.52-28.47c14.01-1.59,26.65,8.58,28.22,22.72
		c0.61,5.5-0.55,10.79-3.01,15.29c0.27-0.07,0.54-0.13,0.81-0.2c1.82-0.46,3.62-0.97,5.4-1.53c0.92-0.29,1.83-0.59,2.73-0.91
		c3-1.05,5.96-2.25,8.88-3.61c0.53-0.25,1.05-0.51,1.58-0.76c0.8-0.39,1.6-0.8,2.39-1.21c1.44-0.75,2.85-1.54,4.24-2.36
		c0.72-0.43,1.44-0.86,2.15-1.31c4.42-2.77,8.6-5.89,12.51-9.35c1.06-0.94,2.11-1.91,3.13-2.9L137.56,45.93z M42.28,56.59
		c0.08,0.88,0.2,1.74,0.36,2.59c-0.83-0.29-1.66-0.59-2.48-0.9c-1.63-0.62-3.24-1.29-4.84-2.01c-0.39-0.17-0.78-0.35-1.16-0.53
		c-0.48-0.22-0.95-0.45-1.42-0.68c0.81-0.48,1.63-0.95,2.46-1.39c1.55-0.84,3.12-1.61,4.72-2.34c0.8-0.36,1.6-0.72,2.41-1.06
		c-0.09,0.86-0.16,1.74-0.18,2.62c-0.01,0.25-0.01,0.51-0.01,0.76C42.14,54.64,42.18,55.62,42.28,56.59z M102.85,52.83
		c-0.02-0.88-0.09-1.76-0.18-2.62c0.81,0.34,1.61,0.69,2.41,1.05c1.6,0.73,3.18,1.5,4.72,2.33c0.83,0.45,1.65,0.91,2.47,1.39
		c-0.49,0.24-0.98,0.48-1.47,0.71c-0.37,0.17-0.74,0.34-1.11,0.51c-1.6,0.72-3.21,1.39-4.84,2.02c-0.82,0.32-1.65,0.62-2.48,0.91
		c0.15-0.85,0.27-1.72,0.35-2.59c0.09-0.95,0.13-1.91,0.13-2.88C102.86,53.38,102.86,53.1,102.85,52.83z M137.57,36.68
		c-5.55,5.69-11.74,10.58-18.5,14.63c-0.75,0.45-1.5,0.88-2.26,1.31c-0.76-0.48-1.52-0.94-2.3-1.39c-3.28-1.92-6.68-3.61-10.19-5.06
		c-0.88-0.36-1.76-0.71-2.66-1.05c-0.28-0.96-0.6-1.91-0.97-2.83c-4.48-11.28-15.43-19.27-28.2-19.27
		c-12.79,0-23.75,8.01-28.22,19.32c-0.36,0.92-0.69,1.87-0.96,2.83c-0.89,0.34-1.78,0.69-2.65,1.05c-3.5,1.46-6.9,3.16-10.18,5.08
		c-0.77,0.45-1.54,0.92-2.29,1.4c-0.76-0.42-1.52-0.86-2.26-1.3c-6.76-4.02-12.95-8.89-18.5-14.56c-0.79-0.81-1.58-1.63-2.34-2.47
		c0.44-0.48,0.88-0.96,1.33-1.43c7.97-8.43,17.3-15.17,27.79-20.07c12.07-5.63,24.98-8.49,38.38-8.49c13.36,0,26.24,2.84,38.27,8.44
		c10.46,4.87,19.77,11.57,27.73,19.95c0.45,0.47,0.89,0.94,1.33,1.42C139.15,35.04,138.36,35.86,137.57,36.68z"/>
	<path class="st0" d="M75.28,79.09c-8.88,1.01-17.2-2.71-22.51-9.16c-3.77-0.71-6.66-1.51-7.68-1.8l0.05,0.08
		c5.47,9.51,15.67,15.93,27.33,15.93c11.69,0,21.91-6.44,27.37-15.98c-0.89,0.25-3.92,0.99-7.76,1.78
		C88.01,74.97,82.19,78.31,75.28,79.09z"/>
</g>
<path class="st1" d="M24.16,55.42c14.07,8.37,31.02,13.05,48.29,13.05c17.29,0,33.9-4.57,48.22-13.05c0,0,8.32-4.59,17.96-13.66
	l-1.34,5.21c-6.03,5.74-13.54,10.57-13.54,10.57c-15.24,9.19-31.26,14.23-51.52,14.23S33.52,65.8,21.16,57.54
	c0,0-8.02-4.84-13.5-10.58l-1.3-5.06C14.25,49.84,24.16,55.42,24.16,55.42z"/>
</svg>
