<svg id="Layer_1" data-name="Layer 1" xmlns="http://www.w3.org/2000/svg" viewBox="0 0 137 93.4"><defs><style>.cls-1{fill:currentColor;}</style></defs><title>Untitled-4</title><g id="graphic_mark_negative" data-name="graphic mark_negative"><path class="cls-1" d="M137,31.78a.28.28,0,0,1,0-.09s0-.06,0-.09a.3.3,0,0,0,0-.1.29.29,0,0,0,0-.09l0-.11s0,0,0-.06,0-.09,0-.13,0,0,0-.05l-.08-.14v0l-.09-.13,0,0-.07-.09,0-.06h0c-.82-.93-1.67-1.84-2.53-2.74A90.79,90.79,0,0,0,30.59,8.31,89.8,89.8,0,0,0,3,28Q1.75,29.35.52,30.74v0l-.13.15c0,.05-.07.1-.1.16v0l-.08.15s0,0,0,.05l-.05.12a.25.25,0,0,0,0,.07s0,.07,0,.11a.29.29,0,0,1,0,.09s0,.06,0,.09,0,.07,0,.1A.28.28,0,0,1,0,32v.19a.31.31,0,0,0,0,.1.41.41,0,0,0,0,.11.25.25,0,0,0,0,.08.39.39,0,0,0,0,.14v.06h0l1.29,4.93L7.81,62.3l.94,3.59h0a1.82,1.82,0,0,0,.11.3v0a2.15,2.15,0,0,0,.14.26l0,.05.14.19s0,0,.05,0h0c.82.92,1.65,1.81,2.5,2.69a79.12,79.12,0,0,0,113.53-.15c.85-.88,1.68-1.77,2.49-2.69h0l0-.06.14-.18a.1.1,0,0,1,0,0c0-.09.1-.17.14-.26v0a1.63,1.63,0,0,0,.11-.31h0l.94-3.59,6.45-24.73,1.29-5h0v-.05a.8.8,0,0,0,0-.15.22.22,0,0,0,0-.08s0-.07,0-.11v-.29ZM125.23,61.1c-.59-.6-1.19-1.2-1.79-1.78a62.48,62.48,0,0,0-6.51-5.58c-1.28.77-2.59,1.5-3.91,2.2a63.23,63.23,0,0,1,9.22,8c.43.44.85.88,1.27,1.33l-1.25,1.32a75,75,0,0,1-107.51.14c-.43-.44-.85-.87-1.26-1.32L14.75,64a64.24,64.24,0,0,1,9.15-8.1c-1.32-.7-2.63-1.43-3.91-2.2a64.28,64.28,0,0,0-6.44,5.71c-.6.59-1.19,1.19-1.78,1.79l-.64-2.45L6,39.14S29.24,64.07,69.19,64.07,131,39,131,39ZM39.94,52.85c.08.79.19,1.56.33,2.32A88.82,88.82,0,0,1,31,51.4c.76-.44,1.52-.87,2.29-1.28,1.46-.78,3-1.5,4.46-2.19.75-.34,1.51-.67,2.28-1-.09.81-.15,1.62-.17,2.45,0,.23,0,.47,0,.71C39.81,51,39.86,52,39.94,52.85Zm57.24-3.51c0-.82-.08-1.64-.17-2.45l2.28,1q2.26,1,4.46,2.18c.78.42,1.56.85,2.33,1.3-.46.22-.92.45-1.39.66l-1,.48q-2.27,1-4.57,1.88c-.78.3-1.56.58-2.34.85.14-.8.25-1.61.33-2.42s.13-1.78.13-2.69C97.19,49.85,97.19,49.6,97.18,49.34ZM56.75,28.51l.09-.06h0a23.39,23.39,0,0,1,3.58-1.57v0h0l.08,0a10.16,10.16,0,0,1,2.6.73,19.16,19.16,0,0,0-5.61,4.23,20,20,0,0,0-4.76-.34,21,21,0,0,1,1.79-1.6A25.38,25.38,0,0,1,56.75,28.51ZM90.6,39.28c.26.52.49,1.06.71,1.61s.21.85.28,1.28a18.35,18.35,0,0,0-4.76-.87,12.4,12.4,0,0,0-1-3,11.76,11.76,0,0,0-1-1.64A19.11,19.11,0,0,1,88,34.85,18.45,18.45,0,0,1,90.6,39.28Zm2.36,8A25,25,0,0,1,93,52.14,9.79,9.79,0,0,0,92.37,51a22.54,22.54,0,0,0,.51-4.17C92.9,47,92.94,47.16,93,47.33ZM82,59c-.3-1.77-.71-3.55-1.18-5.26a11,11,0,0,0,3.31-2.48A26.49,26.49,0,0,1,88,57.79l-.09.1C85.94,58.32,84,58.7,82,59Zm-6.59-5.15a10.92,10.92,0,0,1-3.84-.93c1.82-3.43,3.25-6.48,4.1-8.39A85.63,85.63,0,0,1,75.45,53.85ZM61.36,59.63a20.53,20.53,0,0,1-2.89-2.77c2.66-2.15,5.53-4.42,8.19-6.52a12.24,12.24,0,0,0,3.55,3c-1.16,2.14-2.46,4.39-3.85,6.58C64.68,59.87,63,59.78,61.36,59.63ZM53,46.65c.05.47.14.93.23,1.39a38.1,38.1,0,0,0-6.31,3.32c-.09-.47-.16-.94-.21-1.42a24.35,24.35,0,0,1,.34-7.8,23.85,23.85,0,0,1,6.19-1.66A20.12,20.12,0,0,0,53,46.65Zm-5.65-5.73a21.15,21.15,0,0,1,4.25-8.13l.2-.24c.61-.07,1.23-.09,1.84-.1a19.7,19.7,0,0,1,3.16.25,17.91,17.91,0,0,0-3.31,6.7A26,26,0,0,0,47.32,40.92Zm26.53,1.26c-2,.38-5.17,1-8.76,2a10.71,10.71,0,0,1,.14-3.57A73.59,73.59,0,0,1,73.85,42.18ZM65.5,39.55h0a10.13,10.13,0,0,1,1.56-3A54,54,0,0,1,74,41.18,71.85,71.85,0,0,0,65.5,39.55Zm8.71,3.59c-1.62,1.26-4.29,3.35-7.34,5.75a10.23,10.23,0,0,1-.71-1.2,11.46,11.46,0,0,1-.89-2.54C69,44.18,72.23,43.51,74.21,43.14Zm-6.45-7.42a9.75,9.75,0,0,1,2.68-2,42.85,42.85,0,0,1,4.23,6.69A54.16,54.16,0,0,0,67.76,35.72Zm3.67-2.46a10,10,0,0,1,3-.65,51.87,51.87,0,0,1,1.07,7.08A43.27,43.27,0,0,0,71.43,33.26Zm-.66-.82c-.29-.36-.61-.71-.93-1.07a20.92,20.92,0,0,0-4.36-3.73,23.36,23.36,0,0,1,6.09-1.41,12,12,0,0,1,2.55,5.29l0,.1A11,11,0,0,0,70.77,32.44ZM68.4,31.36c.49.5,1,1,1.4,1.54a10.87,10.87,0,0,0-3,2.32,34,34,0,0,0-8.13-3.17c.08-.09.18-.16.26-.25a18.41,18.41,0,0,1,5.35-3.66A18.09,18.09,0,0,1,68.4,31.36ZM66.17,36a11.4,11.4,0,0,0-1.64,3.2c0,.06,0,.12,0,.19a47.71,47.71,0,0,0-10-.15A17,17,0,0,1,57.81,33l.09-.1A32.88,32.88,0,0,1,66.17,36Zm-11.88,4.3a47,47,0,0,1,9.93.11,11.34,11.34,0,0,0-.12,3.94,88.4,88.4,0,0,0-9.93,3.25c-.06-.37-.14-.73-.18-1.1A18.82,18.82,0,0,1,54.29,40.34Zm10,5.07a12,12,0,0,0,1,2.72,11.22,11.22,0,0,0,.81,1.39c-2.66,2.1-5.54,4.38-8.21,6.54a19.15,19.15,0,0,1-3.49-7.39A87,87,0,0,1,64.28,45.41Zm3.18,4.3c3.08-2.42,5.78-4.53,7.4-5.79-.84,1.87-2.3,5-4.18,8.53A11.35,11.35,0,0,1,67.46,49.71Zm8-17.11a10.68,10.68,0,0,1,3.77.82,62.32,62.32,0,0,1-2.68,6.83A51.65,51.65,0,0,0,75.44,32.6Zm3.36,9.89A56.32,56.32,0,0,1,86,42.26a10.59,10.59,0,0,1-.06,3.18A39,39,0,0,0,78.8,42.49Zm6.85,4-.11.41a10.32,10.32,0,0,1-1.34,2.7,54,54,0,0,0-6-6.23A38.6,38.6,0,0,1,85.65,46.49Zm-7.74-4.92c1.89-1.43,4.12-3,6-4.35a10.65,10.65,0,0,1,.93,1.52,11.67,11.67,0,0,1,.89,2.5A57.42,57.42,0,0,0,77.91,41.57Zm-.42-1a62.79,62.79,0,0,0,2.64-6.74,11,11,0,0,1,3.19,2.55C81.24,37.84,79,39.49,77.49,40.62Zm-.73,4.43a85.75,85.75,0,0,1,2.85,8.13,9.89,9.89,0,0,1-3.1.66A84.41,84.41,0,0,0,76.76,45.05Zm.7-1a54.46,54.46,0,0,1,6.09,6.42,10,10,0,0,1-3,2.3A85.87,85.87,0,0,0,77.46,44Zm7.4,6.39a11.17,11.17,0,0,0,1.66-3.22c0-.06,0-.11,0-.17a16.12,16.12,0,0,1,4.69,4.16,16.62,16.62,0,0,1-2.55,5.62A28.33,28.33,0,0,0,84.86,50.42Zm2-4.44A11.53,11.53,0,0,0,87,42.32a14.68,14.68,0,0,1,4.75,1,22.61,22.61,0,0,1-.21,6.56A18.73,18.73,0,0,0,86.83,46Zm.47-11.93a25.19,25.19,0,0,0-3.12,1.81,12.17,12.17,0,0,0-3.75-3c.08-.28.15-.54.22-.81a16.77,16.77,0,0,0,.51-3A24.09,24.09,0,0,1,87.3,34.05Zm-7.16-5.57A13.66,13.66,0,0,1,79.62,32c0,.17-.08.33-.13.5a11.51,11.51,0,0,0-3.1-.8c-.26,0-.52,0-.77-.05l-.42,0a15.57,15.57,0,0,0-2.34-5.39,14.22,14.22,0,0,1,2.93.45A24.58,24.58,0,0,1,80.14,28.48Zm-14.39-2.8a24.65,24.65,0,0,1,3.53-.12A22.27,22.27,0,0,0,64.38,27a11.38,11.38,0,0,0-1.85-.75A24.37,24.37,0,0,1,65.75,25.68ZM47.61,37.11a22.7,22.7,0,0,0-1.48,4.32c-.28.13-.55.27-.82.42A24.43,24.43,0,0,1,47.61,37.11Zm-1.74,5.58a25.4,25.4,0,0,0-.21,7.36c.07.66.18,1.32.31,2a17.5,17.5,0,0,0-1.8,1.55q-.09-.51-.15-1a24.08,24.08,0,0,1,.84-9.27C45.19,43.07,45.53,42.87,45.87,42.69ZM44.41,54.81a13.32,13.32,0,0,1,1.8-1.69,24.87,24.87,0,0,0,1.46,4.23c-.93-.23-1.86-.46-2.77-.72C44.71,56,44.55,55.42,44.41,54.81Zm2.69-2.36a35.23,35.23,0,0,1,6.31-3.39,20,20,0,0,0,3.65,7.63l-2.54,2.06c-1.88-.31-3.74-.66-5.59-1.09A24,24,0,0,1,47.1,52.45Zm10.58,5a21,21,0,0,0,1.93,2c-1.26-.13-2.51-.29-3.76-.48ZM69.19,60c-.54,0-1.08,0-1.62,0,1.29-2.05,2.49-4.14,3.57-6.14a11.85,11.85,0,0,0,4.21,1c-.16,1.62-.39,3.28-.69,4.94C72.85,59.91,71,60,69.19,60Zm7.23-5.15a11,11,0,0,0,3.46-.69c.45,1.63.83,3.32,1.13,5-1.74.25-3.5.43-5.27.56C76,58.08,76.26,56.43,76.42,54.84Zm13,2.69A17.59,17.59,0,0,0,92,52.37a8.24,8.24,0,0,1,.73,1.88A25.83,25.83,0,0,1,92,56.83C91.16,57.07,90.31,57.32,89.45,57.53ZM130,34.26A86.36,86.36,0,0,1,112.5,47.92c-.71.41-1.42.82-2.14,1.22-.72-.44-1.44-.88-2.17-1.3a78.73,78.73,0,0,0-9.63-4.72c-.83-.35-1.66-.67-2.51-1a26.51,26.51,0,0,0-.91-2.64,28.71,28.71,0,0,0-53.3,0,26.51,26.51,0,0,0-.91,2.64c-.84.31-1.68.64-2.51,1a80.14,80.14,0,0,0-9.61,4.75c-.73.42-1.45.85-2.16,1.3L26,48.86c-.5-.28-1-.56-1.5-.85A86.07,86.07,0,0,1,7,34.41c-.75-.76-1.49-1.52-2.22-2.31l1.26-1.33a86.51,86.51,0,0,1,124.88-.17l1.26,1.33C131.47,32.72,130.73,33.5,130,34.26Z" transform="translate(0 0)"/><path class="cls-1" d="M82.16,69.7A29.7,29.7,0,0,0,82.69,66l-1,.12a23,23,0,0,1-.72,4.23A22.86,22.86,0,0,1,74,72.18c-.86.09-1.71.14-2.57.15A24.09,24.09,0,0,0,74.18,67L73,67a19.38,19.38,0,0,1-2.85,5.29A24.65,24.65,0,0,1,60.71,70c.66-.68,2.15-2.34,2.79-3.12l-1.26-.09c-.55.64-1.94,2.16-2.49,2.73a23.09,23.09,0,0,1-4.87-3.31L53.29,66A25.7,25.7,0,0,0,59,70.23a19.15,19.15,0,0,1-1.9,1.58,25.35,25.35,0,0,1-8-6.64c-3.26-.64-5.6-1.23-6.43-1.46a29.86,29.86,0,0,0,51.69-.05c-.77.21-3.14.76-6.33,1.35A14,14,0,0,1,82.16,69.7ZM70.68,73.33l.54,0a26.1,26.1,0,0,0,2.92-.16A24.23,24.23,0,0,0,80,71.77a24.64,24.64,0,0,1-8.76,2.69c-.62.07-1.23.11-1.84.13A10.79,10.79,0,0,0,70.68,73.33ZM60,70.72a25.49,25.49,0,0,0,9.38,2.55,9.65,9.65,0,0,1-1.62,1.32,24.49,24.49,0,0,1-9.61-2.27A22.23,22.23,0,0,0,60,70.72Z" transform="translate(0 0)"/></g></svg>