<?xml version="1.0" encoding="UTF-8"?>
<svg width="55px" height="123px" viewBox="0 0 55 123" version="1.1" xmlns="http://www.w3.org/2000/svg" xmlns:xlink="http://www.w3.org/1999/xlink">
    <!-- Generator: Sketch 57.1 (83088) - https://sketch.com -->
    <title>Layer_2</title>
    <desc>Created with Sketch.</desc>
    <g id="Page-1" stroke="none" stroke-width="1" fill="none" fill-rule="evenodd">
        <g id="Layer_2" fill="currentColor" fill-rule="nonzero">
            <path d="M53.49,50.78 C53.5,50.76 53.52,50.74 53.53,50.73 C54.5,49.52 54.19,47.7 52.85,46.91 C43.57,41.45 38.31,33.33 37.08,22.57 C37.08,20.91 37.15,19.25 37.31,17.59 L31,17.59 C31.15,20.61 31,23.25 30.55,25.51 C29.86,34.66 24.61,42.09 14.8,47.8 C13.39,48.62 13.03,50.52 14.1,51.76 L14.11,51.77 C14.12,51.78 14.13,51.8 14.14,51.81 C15.44,53.5 17.83,53.84 19.58,52.64 C27.85,46.94 32.79,40.46 34.39,33.21 C36.47,40.28 40.99,46.39 47.95,51.53 C49.69,52.81 52.13,52.48 53.49,50.78 Z" id="Path"></path>
            <path d="M12.63,18.88 C14.3,18.04 14.91,15.97 13.96,14.35 C13.24,13.13 12.38,11.71 11.39,10.1 C9.59,6.93 8.16,4.59 7.11,3.08 L1.93,5.57 C3.47,8.27 5.61,12.25 8.35,17.48 C9.16,19.05 11.07,19.67 12.63,18.88 Z" id="Path"></path>
            <path d="M27.17,14.41 L47.23,14.41 L43.19,24.32 L46.1,25.05 C47.45,25.35 48.43,25.58 49.03,25.73 L53.17,15.33 C53.41,14.73 53.53,14.08 53.53,13.43 L53.53,11.71 C53.53,10.08 52.21,8.76 50.59,8.76 L29.42,8.76 C29.93,7.49 30.43,6.14 30.94,4.72 C31.57,2.95 30.45,1.04 28.59,0.76 C27.15,0.55 25.77,1.41 25.34,2.81 C23.33,9.37 20.21,16 15.96,22.68 L21.58,25.63 C23.67,22.04 25.53,18.3 27.17,14.41 Z" id="Path"></path>
            <path d="M13.87,33.43 C14.25,32.56 14.59,31.78 14.89,31.09 C15.57,29.52 14.88,27.69 13.33,26.97 L13.24,26.93 C11.62,26.18 9.72,26.94 9.05,28.59 C6.71,34.39 3.89,40.68 0.58,47.45 C0.58,47.45 0.58,47.45 0.58,47.45 L6.21,50.17 C7.86,47.01 10.41,41.43 13.87,33.43 Z" id="Path"></path>
            <path d="M6.43,75.91 C6.43,77.6 7.79,78.97 9.47,78.97 L49.7,78.97 L49.7,72.86 L9.47,72.86 C7.8,72.86 6.43,74.23 6.43,75.91 Z" id="Path"></path>
            <path d="M52.51,105.84 C50.62,105.59 49.08,106.92 48.91,108.47 C48.76,109.86 48.59,111.27 48.35,113.15 C47.9,115.87 47.09,116.79 44.6,116.8 L42.59,116.8 C40.03,116.95 37.61,113.41 37.76,110.7 L37.76,95.05 L54.66,95.05 L54.66,89.16 L4.41,89.16 C2.79,89.16 1.48,90.48 1.48,92.1 C1.48,93.73 2.79,95.04 4.41,95.04 L15.72,95.04 C15.83,103.62 12.27,111.95 4.45,116.81 C2.78,117.84 2.32,120.07 3.49,121.65 L3.53,121.7 C4.54,123.07 6.42,123.42 7.87,122.54 C17.69,116.64 22.34,105.85 21.93,95.05 L31.46,95.04 L31.46,112.28 C31.46,117.26 35.51,122.2 40.77,122.2 L45.48,122.2 C51.19,122.35 53.39,120.16 53.99,115.64 C54.29,114.43 54.59,112.55 54.89,109.98 C54.92,109.74 54.95,109.51 54.98,109.29 C55.16,107.98 54.35,106.09 52.51,105.84 Z" id="Path"></path>
        </g>
    </g>
</svg>