<svg width="761" height="443" viewBox="0 0 761 443" fill="none" xmlns="http://www.w3.org/2000/svg">
<path d="M163.306 377.428C113.21 327.332 113.21 245.804 163.306 195.708C179.69 179.324 200.116 167.695 222.413 162.032L223.232 161.818L224.033 161.587C261.414 150.741 296.711 130.083 323.406 103.388C353.057 73.7366 373.929 36.6589 383.813 -3.89151C389.832 -23.766 400.553 -41.5391 415.726 -56.7121C465.822 -106.808 547.35 -106.808 597.446 -56.7121C647.542 -6.61624 647.542 74.9119 597.446 125.008C582.576 139.878 564.215 150.937 544.269 157.028C504.716 166.84 467.977 187.872 437.951 217.898C409.796 246.053 389.423 280.353 379.058 317.074L378.72 318.339C373.074 340.618 361.427 361.026 345.043 377.41C294.93 427.524 213.401 427.524 163.306 377.428Z" stroke="currentColor" stroke-miterlimit="10"/>
<path d="M220.027 362.878C189.414 332.265 189.414 282.436 220.027 251.823C230.053 241.797 242.502 234.691 256.072 231.236L257.71 230.809L259.277 230.346C304.672 217.185 347.555 192.004 380.091 159.467C415.816 123.743 441.122 79.0968 453.321 30.2476C456.989 18.7432 463.401 8.37853 472.412 -0.63267C503.025 -31.2458 552.854 -31.2458 583.467 -0.632671C614.08 29.9805 614.08 79.8092 583.467 110.422C574.634 119.255 563.788 125.898 552.07 129.674C504.289 141.837 460.017 167.268 423.954 203.33C389.762 237.523 364.99 279.356 352.31 324.269L351.633 326.798C348.196 340.35 341.073 352.816 331.064 362.825C300.469 393.491 250.64 393.491 220.027 362.878Z" stroke="currentColor" stroke-miterlimit="10"/>
<path d="M278.493 351.214C267.362 340.083 267.362 321.954 278.493 310.824C282.144 307.173 286.649 304.591 291.493 303.344L293.969 302.721L296.319 302.044C313.629 297.022 330.601 290.522 347.003 282.704C338.971 299.39 332.382 316.701 327.395 334.402L326.363 338.213C325.134 343.04 322.551 347.545 318.883 351.214C307.752 362.344 289.623 362.344 278.493 351.214ZM503.292 126.628C512.143 107.911 519.231 88.3219 524.431 68.1269C525.731 64.6542 527.85 61.4664 530.895 58.4211C542.026 47.2907 560.155 47.2907 571.285 58.4211C582.416 69.5516 582.416 87.6808 571.285 98.8112C568.329 101.767 564.767 104.047 560.956 105.472C541.135 110.618 521.831 117.742 503.292 126.628Z" stroke="currentColor" stroke-miterlimit="10"/>
<path d="M503.292 126.628L347.11 282.81" stroke="currentColor" stroke-miterlimit="10"/>
</svg>
