<svg width="167" height="167" viewBox="0 0 167 167" fill="none" xmlns="http://www.w3.org/2000/svg">
<path d="M140.773 99.7738C135.313 105.234 125.977 105.963 115.128 102.491C104.307 99.0287 92.1304 91.4239 81.1859 80.4794C70.2414 69.5349 62.6366 57.358 59.1739 46.5372C55.7024 35.6887 56.4311 26.3522 61.8915 20.8918C67.3519 15.4314 76.6884 14.7027 87.5369 18.1742C98.3577 21.6369 110.535 29.2417 121.479 40.1862C132.424 51.1307 140.028 63.3076 143.491 74.1284C146.963 84.9769 146.234 94.3134 140.773 99.7738Z" stroke="currentColor"/>
<line y1="-0.5" x2="88.6338" y2="-0.5" transform="matrix(0.952424 0.304777 0.304777 0.952424 59.1077 46.2798)" stroke="currentColor"/>
<line y1="-0.5" x2="88.6338" y2="-0.5" transform="matrix(0.304777 0.952424 -0.952424 -0.304777 87.2794 18.1084)" stroke="currentColor"/>
<path d="M90.4075 136.875C85.8906 141.392 78.1506 142.009 69.1207 139.119C60.1184 136.238 49.982 129.909 40.869 120.796C31.756 111.683 25.4269 101.547 22.5461 92.5447C19.6565 83.5147 20.2734 75.7748 24.7904 71.2578C29.3073 66.7409 37.0472 66.124 46.0772 69.0136C55.0795 71.8944 65.2159 78.2235 74.3288 87.3365C83.4418 96.4495 89.771 106.586 92.6517 115.588C95.5413 124.618 94.9245 132.358 90.4075 136.875Z" stroke="currentColor"/>
<line y1="-0.5" x2="73.8615" y2="-0.5" transform="matrix(0.952424 0.304777 0.304777 0.952424 22.4117 92.355)" stroke="currentColor"/>
<line y1="-0.5" x2="73.8615" y2="-0.5" transform="matrix(0.304777 0.952424 -0.952424 -0.304777 45.8881 68.8794)" stroke="currentColor"/>
<path d="M60.8344 22.5682L25.1523 71.4257" stroke="currentColor"/>
<path d="M139.097 100.831L90.1414 136.439" stroke="currentColor"/>
</svg>
