<svg width="120" height="120" viewBox="0 0 120 120" fill="none" xmlns="http://www.w3.org/2000/svg">
<path d="M60.0075 119.255C92.7291 119.255 119.255 92.729 119.255 60.0074C119.255 27.2859 92.7291 0.759766 60.0075 0.759766C27.2859 0.759766 0.759796 27.2859 0.759796 60.0074C0.759796 92.729 27.2859 119.255 60.0075 119.255Z" stroke="currentColor" stroke-miterlimit="10"/>
<path d="M115.844 44.1861C118.927 71.5828 104.417 92.3947 77.959 95.3593C51.5009 98.3388 27.6499 79.2997 24.6704 52.8416C21.6908 26.3835 39.5232 5.24384 67.5456 2.69635C82.7411 1.32578 112.864 17.7429 115.844 44.1861Z" stroke="currentColor" stroke-miterlimit="10"/>
<path d="M88.3857 69.0447C101.141 62.8197 106.174 46.8999 99.6279 33.4868C93.0818 20.0736 77.4351 14.2464 64.68 20.4714C51.925 26.6963 46.8916 42.6162 53.4378 56.0293C59.9839 69.4425 75.6306 75.2697 88.3857 69.0447Z" stroke="currentColor" stroke-miterlimit="10"/>
<path d="M77.9739 42.5176C77.9739 42.5176 18.4879 52.1265 2.02606 72.2383" stroke="currentColor" stroke-miterlimit="10"/>
<path d="M77.9739 42.5179C77.9739 42.5179 46.0633 12.7078 17.8324 18.3689" stroke="currentColor" stroke-miterlimit="10"/>
<path d="M77.9739 42.5178C77.9739 42.5178 76.9311 5.13979 64.9236 1.07275" stroke="currentColor" stroke-miterlimit="10"/>
<path d="M77.9739 42.5175C77.9739 42.5175 101.75 23.7465 106.458 23.2251" stroke="currentColor" stroke-miterlimit="10"/>
<path d="M77.9739 42.5176C77.9739 42.5176 113.385 50.4133 118.197 71.1805" stroke="currentColor" stroke-miterlimit="10"/>
<path d="M77.9739 42.5176C77.9739 42.5176 100.261 91.1284 88.4618 111.985" stroke="currentColor" stroke-miterlimit="10"/>
<path d="M77.9739 42.5176C77.9739 42.5176 55.5679 97.2364 32.9534 112.715" stroke="currentColor" stroke-miterlimit="10"/>
</svg>
