<?xml version="1.0" encoding="UTF-8"?>
<svg width="226px" height="155px" viewBox="0 0 226 155" version="1.1" xmlns="http://www.w3.org/2000/svg" xmlns:xlink="http://www.w3.org/1999/xlink">
    <title>logo_jigen</title>

    <g id="Page-1" stroke="none" stroke-width="1" fill="none" fill-rule="evenodd">
        <g id="logo_jigen">
            <g id="Group" transform="translate(7.000000, 6.000000)">
                <g id="Path">
                    <path d="M145.3,72.5 C142.8,50.6 123.2,34.8 101.4,37.3 C79.6,39.8 63.9,59.5 66.3,81.4 C66.6,83.7 67,86 67.6,88.2 C67.7,88.7 80.5,93 106.7,93 C131.4,93 143.5,88.5 143.9,88.5 C145.3,83.4 145.9,78 145.3,72.5 Z"></path>
                    <path d="M58.9,71.9 C57.6,72.4 56.4,73 55.1,73.5 C52.6,74.6 50.2,75.8 47.7,77.1 C46.4,77.8 45.1,78.5 43.9,79.3 C44.6,79.7 45.4,80 46.1,80.4 C46.7,80.7 47.3,81 47.9,81.2 C50.4,82.3 52.9,83.4 55.4,84.3 C56.7,84.8 58,85.3 59.3,85.7 C59.1,84.4 58.9,83 58.7,81.7 C58.6,80.2 58.5,78.7 58.5,77.1 C58.5,76.7 58.5,76.3 58.5,75.9 C58.7,74.6 58.7,73.2 58.9,71.9 Z"></path>
                    <path d="M184.5,77.7 C183.4,78.4 182.3,79.1 181.2,79.7 C179,81 176.8,82.2 174.6,83.4 C173.4,84.1 172.1,84.7 170.9,85.3 C170.1,85.7 169.3,86.1 168.4,86.5 C163.9,88.6 159.2,90.5 154.6,92.1 C153.2,92.6 151.8,93.1 150.3,93.5 C147.5,94.4 144.7,95.2 141.9,95.9 C141.5,96 141.1,96.1 140.6,96.2 C113.5,102.4 100.5,100.7 70.9,96.2 C70.6,96.1 70.2,96 69.9,96 C67.1,95.3 64.3,94.5 61.5,93.6 C60.1,93.2 58.6,92.7 57.2,92.2 C52.5,90.6 47.8,88.7 43.3,86.6 C42.5,86.2 41.7,85.8 40.9,85.5 C39.7,84.9 38.4,84.3 37.2,83.6 C35,82.4 32.8,81.2 30.6,80 C29.5,79.3 28.4,78.7 27.2,78 C20.3,73.7 13.8,68.9 7.7,63.5 C6,62 4.4,60.5 2.8,59 L4.5,65.4 L11.3,91.6 L12.4,95.7 C13.4,94.7 14.3,93.7 15.3,92.7 C19.1,88.9 21.7,86.4 25.9,83.2 C28,84.5 30.2,85.7 32.3,86.9 C26.4,91.2 22.4,95 17.2,100.4 C16.5,101.1 15.8,101.9 15.1,102.6 C15.8,103.3 16.5,104.1 17.2,104.8 C40.4,128.7 72.3,142.4 105.7,142.4 C139.2,142.4 171.2,128.7 194.4,104.6 C195.1,103.9 195.8,103.1 196.5,102.4 C195.8,101.7 195.1,100.9 194.4,100.2 C189.3,94.9 185.1,91.3 179.2,87 C181.4,85.8 183.5,84.6 185.6,83.3 C189.8,86.5 192.5,88.8 196.3,92.6 C197.3,93.6 198.3,94.6 199.2,95.6 L200.2,91.5 L207,65.4 L208.7,58.9 C207.1,60.4 205.5,61.9 203.8,63.4 C197.9,68.6 191.4,73.4 184.5,77.7 Z"></path>
                    <path d="M152.4,85.6 C153.7,85.1 155,84.7 156.3,84.2 C158.8,83.2 161.3,82.2 163.8,81.1 C164.4,80.8 164.9,80.6 165.5,80.3 C166.3,79.9 167,79.6 167.8,79.2 C166.5,78.5 165.2,77.7 164,77.1 C161.6,75.8 159.1,74.6 156.7,73.5 C155.5,72.9 154.2,72.4 152.9,71.9 C153,73.2 153.1,74.6 153.2,76 C153.2,76.4 153.2,76.8 153.2,77.3 C153.2,78.8 153.1,80.3 153,81.8 C152.8,83 152.6,84.3 152.4,85.6 Z"></path>
                    <path d="M165.6,13.9 C146.8,5.2 126.8,0.8 106,0.8 C85.1,0.8 65,5.2 46.2,14 C29.9,21.5 15.4,32 3,45.1 C2.3,45.8 1.6,46.6 0.9,47.3 C2.1,48.6 3.3,49.9 4.6,51.1 C13.2,59.9 22.9,67.4 33.4,73.7 C34.6,74.4 35.7,75.1 36.9,75.7 C38.1,74.9 39.3,74.2 40.5,73.5 C45.6,70.5 50.9,67.9 56.4,65.6 C57.8,65 59.1,64.5 60.5,64 C60.9,62.5 61.4,61 62,59.6 C69,42.1 86,29.6 105.9,29.6 C125.8,29.6 142.8,42 149.8,59.5 C150.4,60.9 150.9,62.4 151.3,63.9 C152.7,64.4 154.1,65 155.4,65.5 C160.8,67.7 166.2,70.4 171.3,73.3 C172.5,74 173.7,74.7 174.9,75.5 C176.1,74.8 177.3,74.2 178.4,73.5 C188.9,67.2 198.6,59.6 207.2,50.8 C208.4,49.5 209.7,48.3 210.9,47 C210.2,46.2 209.5,45.5 208.8,44.8 C196.4,31.8 181.9,21.4 165.6,13.9 Z"></path>
                </g>
                <path d="M110.2,116.6 C96.4,118.2 83.4,112.4 75.2,102.4 C73.8,102.1 69.2,92.9 69.2,92.9 L60.5,93.2 C66.9,112.9 87.7,124.4 105.9,124.4 C124.1,124.4 140,114.4 148.5,99.6 C147.1,100 142.4,101.1 136.4,102.4 C130,110.2 120.9,115.4 110.2,116.6 Z" id="Path" fill="currentColor" fill-rule="nonzero"></path>
            </g>
            <g id="Group">
                <path d="M202.2,76.4 C203.1,75.7 204.1,75 205.1,74.2 C204.1,74.9 203.1,75.7 202.2,76.4 Z" id="Path"></path>
                <path d="M191.5,83.7 C191.2,83.9 190.8,84.1 190.5,84.3 C192.8,82.9 196.5,80.6 201.1,77.1 C198,79.5 194.8,81.7 191.5,83.7 Z" id="Path"></path>
                <path d="M13.2,68 C13.5,68.3 13.9,68.6 14.2,68.9 C13.8,68.6 13.5,68.3 13.2,68 Z" id="Path"></path>
                <path d="M192.8,89 C169.1,103.2 143.9,111.5 112.4,111.5 C84.1,111.5 58.2,103.7 39.3,92.8 C33.5,97 29.4,100.9 24.3,106.2 C23.6,106.9 22.9,107.7 22.2,108.4 C22.9,109.1 23.6,109.9 24.3,110.6 C47.5,134.5 79.4,148.2 112.8,148.2 C146.3,148.2 178.3,134.5 201.5,110.4 C202.2,109.7 202.9,108.9 203.6,108.2 C202.9,107.5 202.2,106.7 201.5,106 C196.4,100.7 192.2,97.1 186.3,92.8 C188.5,91.6 190.6,90.4 192.7,89.1 C196.9,92.3 199.6,94.6 203.4,98.4 C204.4,99.4 205.4,100.4 206.3,101.4 L207.3,97.3 L213.6,72.8 L213.6,72.8 C204.3,81.7 192.8,89 192.8,89 Z" id="Path"></path>
                <path d="M15,69.6 C16.2,70.6 17.3,71.6 18.5,72.5 C17.3,71.6 16.2,70.6 15,69.6 Z" id="Path"></path>
                <path d="M90,104 C92.7,104.4 95.4,104.8 98.1,105.1 C95.6,104.7 92.9,104.3 90,104 Z" id="Path"></path>
                <path d="M11.9,72.7 L9.9,65 C9.9,65 9.9,65 9.9,65 L11.6,71.4 L18.4,97.6 L19.5,101.7 C20.5,100.7 21.4,99.7 22.4,98.7 C26.2,94.9 28.8,92.4 33,89.2 C33.8,89.7 34.7,90.2 35.6,90.7 C34.7,90.2 33.9,89.6 33.1,89.1 C33,89 20.5,81.6 11.9,72.7 Z" id="Path"></path>
                <path d="M172.6,19.9 C153.8,11.2 133.8,6.8 113,6.8 C92.1,6.8 72,11.2 53.2,20 C36.9,27.5 22.4,38 10,51.1 C9.3,51.8 8.6,52.6 7.9,53.3 C9.1,54.6 10.3,55.9 11.6,57.1 C20.2,65.9 29.9,73.4 40.4,79.7 C41.6,80.4 42.7,81.1 43.9,81.7 C45.1,80.9 46.3,80.2 47.5,79.5 C52.6,76.5 57.9,73.9 63.4,71.6 C64.8,71 66.1,70.5 67.5,70 C67.9,68.5 68.4,67 69,65.6 C76,48.1 93,35.6 112.9,35.6 C132.8,35.6 149.8,48 156.8,65.5 C157.4,66.9 157.9,68.4 158.3,69.9 C159.7,70.4 161.1,71 162.4,71.5 C167.8,73.7 173.2,76.4 178.3,79.3 C179.5,80 180.7,80.7 181.9,81.5 C183.1,80.8 184.3,80.2 185.4,79.5 C195.9,73.2 205.6,65.6 214.2,56.8 C215.4,55.5 216.7,54.3 217.9,53 C217.2,52.2 216.5,51.5 215.8,50.8 C203.4,37.8 188.9,27.4 172.6,19.9 Z" id="Path"></path>
                <path d="M159.4,91.6 C160.7,91.1 162,90.7 163.3,90.2 C165.8,89.2 168.3,88.2 170.8,87.1 C171.4,86.8 171.9,86.6 172.5,86.3 C173.3,85.9 174,85.6 174.8,85.2 C173.5,84.5 172.2,83.7 171,83.1 C168.6,81.8 166.1,80.6 163.7,79.5 C162.5,78.9 161.2,78.4 159.9,77.9 C160,79.2 160.1,80.6 160.2,82 C160.2,82.4 160.2,82.8 160.2,83.3 C160.2,84.8 160.1,86.3 160,87.8 C159.8,89 159.6,90.3 159.4,91.6 Z" id="Path"></path>
                <path d="M113.7,98.9 C138.4,98.9 150.5,94.4 150.9,94.4 C152.4,89.4 152.9,84 152.3,78.5 C149.8,56.6 130.2,40.8 108.4,43.3 C86.6,45.8 70.9,65.5 73.3,87.4 C73.6,89.7 74,92 74.6,94.2 C74.8,94.6 87.5,98.9 113.7,98.9 Z" id="Path"></path>
                <path d="M65.9,77.9 C64.6,78.4 63.4,79 62.1,79.5 C59.6,80.6 57.2,81.8 54.7,83.1 C53.4,83.8 52.1,84.5 50.9,85.3 C51.6,85.7 52.4,86 53.1,86.4 C53.7,86.7 54.3,87 54.9,87.2 C57.4,88.3 59.9,89.4 62.4,90.3 C63.7,90.8 65,91.3 66.3,91.7 C66.1,90.4 65.9,89 65.7,87.7 C65.6,86.2 65.5,84.7 65.5,83.1 C65.5,82.7 65.5,82.3 65.5,81.9 C65.7,80.6 65.7,79.2 65.9,77.9 Z" id="Path"></path>
                <path d="M225.7,52.7 C225.7,52.7 225.7,52.6 225.7,52.5 C225.7,52.5 225.7,52.4 225.7,52.3 C225.7,52.3 225.7,52.2 225.7,52.1 C225.7,52.1 225.7,52 225.7,52 C225.7,51.9 225.7,51.9 225.7,51.8 C225.7,51.8 225.7,51.7 225.7,51.7 C225.7,51.6 225.7,51.6 225.6,51.5 C225.6,51.5 225.6,51.5 225.6,51.4 C225.6,51.3 225.5,51.2 225.5,51.2 C225.5,51.2 225.5,51.2 225.5,51.2 C225.5,51.1 225.4,51 225.4,51 C225.4,51 225.4,51 225.4,51 C225.4,51 225.3,50.9 225.3,50.8 C225.3,50.8 225.3,50.7 225.2,50.7 C225.2,50.7 225.2,50.7 225.2,50.7 C223.8,49.2 222.4,47.6 221,46.2 C208,32.6 192.8,21.6 175.7,13.7 C155.8,4.6 134.8,0 113,0 C91.1,0 70.1,4.6 50.4,13.8 C33.2,21.8 18,32.7 5,46.5 C3.6,48 2.2,49.5 0.8,51 C0.8,51 0.8,51 0.8,51 C0.7,51.1 0.7,51.2 0.6,51.3 C0.5,51.4 0.5,51.5 0.4,51.5 C0.4,51.5 0.4,51.5 0.4,51.5 C0.4,51.6 0.3,51.7 0.3,51.7 C0.3,51.7 0.3,51.7 0.3,51.8 C0.3,51.9 0.2,51.9 0.2,52 C0.2,52 0.2,52.1 0.2,52.1 C0.2,52.2 0.2,52.2 0.1,52.3 C0.1,52.3 0.1,52.4 0.1,52.5 C0.1,52.5 0.1,52.6 0.1,52.7 C0.1,52.7 0.1,52.8 0.1,52.9 C0.1,52.9 0.1,53 0.1,53 C0.1,53 0.1,53.1 0.1,53.2 C0.1,53.2 0.1,53.3 0.1,53.3 C0.1,53.3 0.1,53.4 0.1,53.5 C0.1,53.6 0.1,53.6 0.1,53.7 C0.1,53.7 0.1,53.8 0.1,53.8 C0.1,53.9 0.1,53.9 0.1,54 C0.1,54 0.1,54 0.1,54.1 L0.1,54.1 L0.1,54.1 L2.2,62.3 L12.8,103.3 L14.3,109.2 L14.3,109.2 C14.4,109.4 14.4,109.5 14.5,109.7 C14.5,109.7 14.5,109.7 14.5,109.8 C14.6,110 14.7,110.1 14.7,110.2 C14.7,110.2 14.7,110.3 14.8,110.3 C14.9,110.4 14.9,110.5 15,110.6 C15,110.6 15,110.6 15.1,110.7 C15.1,110.7 15.1,110.7 15.1,110.7 C16.4,112.2 17.8,113.7 19.2,115.2 C43.7,140.5 77.3,154.9 112.6,154.9 C148,154.9 181.8,140.4 206.2,114.9 C207.6,113.4 209,112 210.3,110.4 C210.3,110.4 210.4,110.3 210.4,110.3 C210.5,110.2 210.6,110.1 210.6,110 C210.6,110 210.6,110 210.7,109.9 C210.8,109.8 210.9,109.6 210.9,109.5 C210.9,109.5 210.9,109.5 210.9,109.5 C211,109.3 211,109.2 211.1,109 C211.1,109 211.1,109 211.1,109 L212.6,103.1 L223.2,62.1 L225.3,53.9 L225.3,53.9 L225.3,53.9 C225.3,53.9 225.3,53.9 225.3,53.8 C225.3,53.7 225.3,53.6 225.4,53.6 C225.4,53.6 225.4,53.5 225.4,53.5 C225.4,53.4 225.4,53.4 225.4,53.3 C225.4,53.3 225.4,53.2 225.4,53.1 C225.4,53.1 225.4,53 225.4,52.9 C225.7,52.8 225.7,52.8 225.7,52.7 Z M207.4,97.3 L206.4,101.4 C205.4,100.4 204.4,99.4 203.5,98.4 C199.7,94.7 196.9,92.3 192.7,89.1 C190.6,90.4 188.5,91.6 186.3,92.8 C192.2,97 196.4,100.8 201.5,106 C202.2,106.7 202.9,107.5 203.6,108.2 C202.9,108.9 202.2,109.7 201.5,110.4 C178.3,134.5 146.3,148.2 112.8,148.2 C79.4,148.2 47.5,134.6 24.3,110.6 C23.6,109.9 22.9,109.2 22.2,108.4 C22.9,107.6 23.6,106.9 24.3,106.2 C29.4,100.9 33.4,97.1 39.3,92.8 C38,92.1 36.8,91.3 35.5,90.6 C34.6,90.1 33.8,89.5 33,89 C28.8,92.2 26.1,94.8 22.3,98.6 C21.3,99.6 20.3,100.6 19.4,101.6 L18.3,97.5 L11.5,71.3 L9.8,64.9 C9.8,64.9 9.8,64.9 9.8,64.9 L9.8,64.8 C11,66 12.1,67 13.2,68 C13.5,68.3 13.9,68.6 14.2,68.9 C14.5,69.2 14.8,69.4 15.1,69.7 C16.2,70.7 17.4,71.7 18.6,72.6 C28.5,80.6 37.8,85.8 37.8,85.8 C53.3,95 71.2,101.1 90,104 C92.8,104.4 95.5,104.8 98.1,105.1 C103,105.6 107.9,105.9 112.9,106 C138.4,106.4 165.7,98.9 188,85.9 C188,85.9 188.9,85.4 190.5,84.5 C190.8,84.3 191.2,84.1 191.5,83.9 C194.8,81.8 198,79.6 201.2,77.3 C201.5,77.1 201.9,76.8 202.2,76.6 C203.2,75.9 204.1,75.1 205.1,74.4 C208.4,71.7 212.1,68.6 216,64.9 L213.8,73 L207.4,97.3 Z M65.8,87.7 C65.9,89.1 66.1,90.4 66.4,91.7 C65.1,91.2 63.8,90.8 62.5,90.3 C60,89.3 57.5,88.3 55,87.2 C54.4,86.9 53.8,86.7 53.2,86.4 C52.5,86.1 51.7,85.7 51,85.3 C52.3,84.6 53.5,83.8 54.8,83.1 C57.2,81.8 59.7,80.6 62.2,79.5 C63.4,78.9 64.7,78.4 66,77.9 C65.8,79.2 65.8,80.6 65.7,82 C65.7,82.4 65.7,82.8 65.7,83.2 C65.6,84.7 65.7,86.2 65.8,87.7 Z M108.3,43.2 C130.1,40.7 149.8,56.5 152.2,78.4 C152.8,83.9 152.3,89.3 150.8,94.3 C150.4,94.3 138.3,98.8 113.6,98.8 C87.4,98.8 74.7,94.5 74.5,94 C73.9,91.8 73.4,89.6 73.2,87.2 C70.8,65.5 86.5,45.7 108.3,43.2 Z M160.1,81.9 C160.1,80.5 160,79.2 159.8,77.8 C161.1,78.3 162.3,78.9 163.6,79.4 C166.1,80.5 168.5,81.7 170.9,83 C172.2,83.7 173.5,84.4 174.7,85.1 C173.9,85.5 173.2,85.8 172.4,86.2 C171.8,86.5 171.3,86.7 170.7,87 C168.2,88.1 165.7,89.2 163.2,90.1 C161.9,90.6 160.6,91.1 159.3,91.5 C159.5,90.2 159.7,88.8 159.8,87.5 C159.9,86 160,84.5 160,83 C160.1,82.7 160.1,82.3 160.1,81.9 Z M214.2,56.8 C205.6,65.6 195.9,73.2 185.4,79.5 C184.2,80.2 183.1,80.9 181.9,81.5 C180.7,80.8 179.5,80 178.3,79.3 C173.2,76.3 167.9,73.7 162.4,71.5 C161,70.9 159.6,70.4 158.3,69.9 C157.9,68.4 157.4,66.9 156.8,65.5 C149.8,48 132.8,35.6 112.9,35.6 C93,35.6 75.9,48 69,65.6 C68.4,67 67.9,68.5 67.5,70 C66.1,70.5 64.7,71.1 63.4,71.6 C57.9,73.9 52.7,76.5 47.5,79.5 C46.3,80.2 45.1,80.9 43.9,81.7 C42.7,81 41.5,80.4 40.4,79.7 C29.9,73.5 20.2,65.9 11.6,57.1 C10.4,55.9 9.1,54.6 7.9,53.3 C8.6,52.5 9.3,51.8 10,51.1 C22.4,38 36.9,27.5 53.2,20 C72,11.2 92.1,6.8 113,6.8 C133.8,6.8 153.8,11.2 172.6,19.9 C188.9,27.4 203.4,37.8 215.8,50.8 C216.5,51.5 217.2,52.3 217.9,53 C216.6,54.3 215.4,55.6 214.2,56.8 Z" id="Shape" fill="currentColor" fill-rule="nonzero"></path>
                <path d="M9.9,64.9 L9.9,64.9 C11,66 12.1,67 13.2,68 C12.1,67 11,66 9.9,64.9 Z" id="Path" fill="#FFFFFF" fill-rule="nonzero"></path>
                <path d="M15,69.6 C14.7,69.3 14.4,69.1 14.1,68.8 C14.3,69 14.5,69.2 14.7,69.3 C14.9,69.5 14.9,69.6 15,69.6 Z" id="Path" fill="#FFFFFF" fill-rule="nonzero"></path>
                <polygon id="Path" fill="#FFFFFF" fill-rule="nonzero" points="214.1 71.2 213.7 72.9 215.9 64.7"></polygon>
                <path d="M211,69.2 C209.1,70.9 207,72.6 205,74.2 C204,75 203.1,75.7 202.1,76.4 C201.8,76.6 201.4,76.9 201.1,77.1 C196.5,80.5 192.8,82.9 190.5,84.3 C188.9,85.3 188,85.7 188,85.7 C165.7,98.8 138.4,106.3 112.9,105.8 C108,105.7 103,105.4 98.1,104.9 C95.4,104.6 92.7,104.3 90,103.8 C71.2,100.9 53.3,94.8 37.6,85.6 C37.6,85.6 29.6,81.1 20.5,74.1 C19.8,73.5 19.1,73 18.4,72.4 C17.2,71.5 16.1,70.5 14.9,69.5 C14.8,69.4 14.7,69.4 14.6,69.3 C14.4,69.1 14.2,68.9 14,68.8 C13.7,68.5 13.3,68.2 13,67.9 C11.9,66.9 10.8,65.9 9.7,64.9 L11.7,72.6 C20.5,81.6 33,89 33,89 C33.8,89.5 34.7,90.1 35.5,90.6 C36.7,91.4 38,92.1 39.3,92.8 C58.2,103.6 84.1,111.5 112.4,111.5 C144,111.5 169.1,103.2 192.8,89 C192.8,89 204.3,81.7 213.7,72.9 L213.7,72.9 L214.1,71.2 L215.8,64.7 C214.3,66.3 212.7,67.8 211,69.2 Z" id="Path" fill="#FFFFFF" fill-rule="nonzero"></path>
                <path d="M201.2,77.1 C201.5,76.9 201.9,76.6 202.2,76.4 C201.8,76.7 201.5,76.9 201.2,77.1 Z" id="Path" fill="#FFFFFF" fill-rule="nonzero"></path>
                <path d="M215.9,64.7 C212.1,68.3 208.4,71.5 205,74.2 C207,72.6 209,71 211,69.2 C212.7,67.8 214.3,66.3 215.9,64.7 Z" id="Path" fill="#FFFFFF" fill-rule="nonzero"></path>
            </g>
        </g>
    </g>
</svg>