<?xml version="1.0" encoding="utf-8"?>
<!-- Generator: Adobe Illustrator 23.0.4, SVG Export Plug-In . SVG Version: 6.00 Build 0)  -->
<svg version="1.1" id="Layer_1" xmlns="http://www.w3.org/2000/svg" xmlns:xlink="http://www.w3.org/1999/xlink" x="0px" y="0px"
	 viewBox="0 0 145 100" style="enable-background:new 0 0 145 100;" xml:space="preserve">
<g>
	<path fill="currentColor" class="st0" d="M98.95,50.45c-0.35-3.17-1.24-6.15-2.57-8.86c-1.97-4.85-5.88-8.65-10.03-11.1
		c-4.91-3.05-10.82-4.53-16.98-3.84c-1.99,0.23-3.9,0.67-5.71,1.3c-0.01,0-0.03,0-0.04,0l0,0.02c-1.36,0.48-2.67,1.06-3.92,1.74
		l-0.01-0.01c-0.03,0.02-0.06,0.05-0.1,0.07c-9.27,5.1-15.06,15.5-13.81,26.72c1.53,13.77,13.14,23.97,26.56,23.97
		c0.99,0,2-0.06,3.01-0.17c7.1-0.81,13.46-4.35,17.92-9.98C97.73,64.65,99.75,57.61,98.95,50.45z M97.81,56.03
		c-0.18-0.36-0.38-0.71-0.6-1.05c0.32-1.41,0.51-2.89,0.56-4.43c0,0.01,0,0.03,0.01,0.04C97.98,52.41,97.98,54.24,97.81,56.03z
		 M71.34,79.23c-3.45-0.14-6.75-0.98-9.76-2.4c0.62-0.48,1.24-1.03,1.85-1.62c2.96,1.46,6.21,2.39,9.61,2.66
		C72.51,78.38,71.95,78.84,71.34,79.23z M47.42,59.07c0.51-0.59,1.1-1.17,1.77-1.72c0.85,3.51,2.36,6.73,4.39,9.53
		c-0.78,0.69-1.42,1.28-1.89,1.74C49.68,65.82,48.2,62.6,47.42,59.07z M46.97,56.34c-0.36-3.26-0.1-6.45,0.69-9.44
		c0.37-0.24,0.75-0.47,1.14-0.68c-0.42,2.48-0.5,5.08-0.2,7.76c0.08,0.7,0.19,1.39,0.32,2.08c-0.66,0.51-1.25,1.04-1.77,1.57
		C47.07,57.2,47.01,56.77,46.97,56.34z M93.28,68.2c-1.87,2.4-4.13,4.33-6.71,5.74c0.41-1.71,0.56-3.71,0.44-5.98
		c2.32-1.09,4.32-2.59,5.95-4.44C93.38,65.11,93.53,66.68,93.28,68.2z M86.92,66.73c-0.23-2.59-0.79-5.52-1.66-8.76
		c1.32-0.67,2.46-1.57,3.4-2.63c1.6,2.16,3.03,4.54,3.89,6.94C91.05,64.12,89.16,65.63,86.92,66.73z M49.77,53.85
		c-0.32-2.88-0.19-5.66,0.35-8.28c1.95-0.87,4.08-1.43,6.29-1.75c-0.39,2.09-0.47,4.29-0.22,6.54c0.05,0.49,0.13,0.98,0.22,1.46
		c-2.54,1.11-4.68,2.27-6.43,3.48C49.89,54.8,49.82,54.33,49.77,53.85z M55.03,35.32c1.67-0.21,3.37-0.13,5.05,0.14
		c-1.6,2.09-2.74,4.49-3.39,7.08c-2.29,0.31-4.36,0.83-6.22,1.57C51.35,40.84,52.89,37.86,55.03,35.32z M90.4,41.38
		c-0.3-0.61-0.64-1.18-1.01-1.72c1.35-0.91,2.47-1.59,3.14-1.86c1.91,2.61,3.23,5.35,3.73,7.64c-1.37-0.49-3.05-0.76-4.8-0.89
		C91.24,43.49,90.9,42.42,90.4,41.38z M89.33,41.91c0.41,0.84,0.7,1.71,0.89,2.58c-2.95-0.11-5.93,0.12-7.87,0.33
		c1.91-1.48,4.13-3.14,6.06-4.49C88.75,40.83,89.06,41.35,89.33,41.91z M90.38,48.97c-0.55-0.31-1.13-0.62-1.73-0.91
		c-1.95-0.95-3.82-1.65-5.29-2.13c1.93-0.18,4.55-0.33,7.08-0.23C90.57,46.8,90.55,47.9,90.38,48.97z M70,51.43
		c-0.42-0.87-0.71-1.76-0.91-2.65c3.67-0.98,6.92-1.67,8.98-2.08c-1.69,1.35-4.36,3.5-7.39,5.95C70.44,52.25,70.21,51.85,70,51.43z
		 M69.04,43.9c3.54,0.46,6.61,1.14,8.62,1.66c-2.08,0.41-5.23,1.08-8.77,2.02C68.75,46.33,68.8,45.09,69.04,43.9z M78.83,47.62
		c-0.88,2.01-2.35,5.22-4.21,8.84c-1.22-0.72-2.32-1.67-3.23-2.84C74.44,51.14,77.14,48.97,78.83,47.62z M79.81,48.34
		c0.05,2.26,0.04,5.76-0.28,9.63c-1.32-0.08-2.62-0.41-3.84-0.96C77.49,53.51,78.92,50.38,79.81,48.34z M81.01,48.93
		c0.81,2.08,1.89,5.05,2.83,8.36c-1.01,0.4-2.06,0.62-3.11,0.68C81.02,54.43,81.05,51.2,81.01,48.93z M84.94,56.78
		c-1.04-3.63-2.25-6.87-3.09-8.95c1.58,1.47,3.92,3.79,6.08,6.54C87.11,55.34,86.1,56.16,84.94,56.78z M82.67,46.97
		c1.95,0.62,4.77,1.68,7.44,3.23c-0.31,1.14-0.79,2.22-1.44,3.2C86.53,50.7,84.26,48.44,82.67,46.97z M81.86,43.69
		c0.78-1.77,1.84-4.36,2.64-6.94c1.19,0.66,2.27,1.55,3.18,2.63C85.64,40.8,83.45,42.47,81.86,43.69z M80.77,43.23
		c-0.14-2.04-0.45-5-1.08-7.87c1.28,0.06,2.54,0.36,3.73,0.86C82.64,38.79,81.55,41.44,80.77,43.23z M79.53,42.61
		c-0.78-1.53-1.89-3.52-3.31-5.55c-0.24-0.35-0.48-0.68-0.73-1.01c0.97-0.38,1.96-0.6,2.96-0.67C79,37.82,79.34,40.44,79.53,42.61z
		 M78.61,43.44c-1.54-1.24-3.83-2.96-6.6-4.6c-0.1-0.06-0.21-0.12-0.31-0.18c0.76-0.83,1.66-1.54,2.69-2.09
		C76.25,39.04,77.69,41.62,78.61,43.44z M77.85,44.37c-2.02-0.52-5.05-1.2-8.51-1.65c0.36-1.12,0.89-2.17,1.57-3.11
		C73.82,41.28,76.26,43.08,77.85,44.37z M68.15,42.57c-0.01,0-0.03,0-0.04,0c-3.73-0.42-7.12-0.47-10.17-0.17
		c0.67-2.43,1.81-4.67,3.37-6.6c0.02-0.03,0.04-0.05,0.07-0.08c2.99,0.66,5.89,1.9,8.48,3.31C69.11,40.1,68.53,41.3,68.15,42.57z
		 M57.36,50.21c-0.25-2.26-0.15-4.47,0.28-6.56c3.43-0.38,6.98-0.25,10.22,0.11c-0.26,1.34-0.31,2.74-0.12,4.14
		c-0.54,0.15-1.09,0.3-1.64,0.47c-3.21,0.94-6.07,1.93-8.58,2.97C57.46,50.96,57.4,50.59,57.36,50.21z M67.95,49.08
		c0.22,0.97,0.54,1.93,0.99,2.87c0.25,0.51,0.52,0.99,0.82,1.45c-2.74,2.22-5.7,4.64-8.46,6.92c-1.7-2.31-2.91-4.95-3.55-7.79
		C61.06,51.15,64.64,50.01,67.95,49.08z M70.46,54.37c1.02,1.29,2.25,2.35,3.61,3.14c-1.56,2.97-3.36,6.14-5.3,9.08
		c-1.32-0.66-2.57-1.46-3.75-2.4c-1.1-0.88-2.09-1.87-2.98-2.93C64.78,59,67.72,56.59,70.46,54.37z M75.14,58.08
		c1.36,0.62,2.81,0.99,4.29,1.08c-0.31,3.16-0.82,6.5-1.69,9.58c-2.73-0.02-5.39-0.58-7.87-1.64
		C71.81,64.16,73.59,61.02,75.14,58.08z M80.5,60.37c0.04-0.4,0.09-0.8,0.12-1.2c1.19-0.05,2.38-0.29,3.53-0.72
		c0.76,2.86,1.38,5.91,1.61,8.79c-1.68,0.68-3.53,1.15-5.54,1.38c-0.41,0.05-0.83,0.08-1.24,0.1C79.65,66.27,80.16,63.49,80.5,60.37
		z M89.43,54.37c0.77-1.07,1.35-2.27,1.74-3.54c1.87,1.2,3.59,2.66,4.8,4.4c-0.54,2.19-1.41,4.17-2.58,5.9
		C92.43,58.77,91,56.46,89.43,54.37z M91.47,49.61c0.25-1.25,0.3-2.54,0.17-3.84c1.84,0.15,3.55,0.46,4.83,1.05
		c0.25,2.45,0.18,4.76-0.18,6.89C95.08,52.23,93.47,50.86,91.47,49.61z M91.79,36.84c-0.82,0.39-1.92,1.06-3.12,1.87
		c-1.09-1.31-2.39-2.36-3.82-3.12c0.41-1.5,0.7-2.95,0.75-4.18c1.54,0.94,2.97,2.04,4.28,3.28C90.55,35.38,91.2,36.1,91.79,36.84z
		 M84.42,30.73c0.05,1.19-0.23,2.72-0.66,4.35c-1.39-0.57-2.86-0.89-4.35-0.91c-0.56-2.19-1.33-4.24-2.38-5.68
		c0.91,0,1.8,0.1,2.68,0.28C81.35,29.26,82.93,29.92,84.42,30.73z M75.54,28.56c1.15,1.14,2,3.24,2.63,5.65
		c-1.16,0.1-2.32,0.39-3.43,0.87c-1.75-2.19-3.54-3.87-5.37-5.06C71.28,29.27,73.35,28.78,75.54,28.56z M73.63,35.62
		c-1.16,0.65-2.17,1.48-3.01,2.44c-2.42-1.32-5.29-2.6-8.34-3.36c1.61-1.69,3.55-3.07,5.73-4.1C70.13,31.81,72.02,33.64,73.63,35.62
		z M60.94,34.41c-1.56-0.3-3.15-0.45-4.74-0.38c1.19-1.21,2.53-2.3,4.01-3.25c1.14-0.63,2.34-1.17,3.59-1.61
		c0.99,0.11,1.95,0.37,2.88,0.77C64.48,31.09,62.54,32.59,60.94,34.41z M49.08,44.72c-0.32,0.15-0.62,0.31-0.92,0.48
		c0.7-2.09,1.66-4.06,2.85-5.89C50.17,41.02,49.52,42.82,49.08,44.72z M50.22,56.56c1.82-1.31,4.03-2.5,6.43-3.56
		c0.71,2.99,2,5.72,3.75,8.07c-2.24,1.86-4.29,3.59-5.92,5.02C52.47,63.3,50.99,60.08,50.22,56.56z M61.14,62.01
		c1.92,2.31,4.29,4.21,6.97,5.57c-1.57,2.3-3.22,4.42-4.9,6.15c-3.09-1.66-5.82-3.94-8-6.7C56.82,65.62,58.88,63.88,61.14,62.01z
		 M64.32,74.3c1.69-1.78,3.33-3.91,4.88-6.19c2.54,1.12,5.31,1.76,8.19,1.82c-0.82,2.6-1.91,4.96-3.35,6.8
		C70.6,76.57,67.31,75.72,64.32,74.3z M78.64,69.92c0.57-0.02,1.15-0.05,1.72-0.12c1.97-0.22,3.8-0.68,5.48-1.33
		c0.09,2.26-0.1,4.39-0.7,6.19c-2.18,0.99-4.56,1.65-7.11,1.94c-0.85,0.1-1.69,0.15-2.53,0.16C76.76,74.95,77.8,72.67,78.64,69.92z
		 M93.86,62.41c1.27-1.7,2.25-3.66,2.91-5.81c0.29,0.59,0.53,1.21,0.68,1.86c-0.53,2.73-1.5,5.35-2.88,7.78
		C94.52,64.98,94.27,63.69,93.86,62.41z M69.52,27.83c0.97-0.11,1.92-0.16,2.87-0.16c0.27,0,0.55,0.01,0.82,0.02
		c-1.81,0.34-3.53,0.87-5.14,1.57c-0.64-0.33-1.28-0.6-1.92-0.81C67.24,28.18,68.37,27.96,69.52,27.83z M52.42,69.57
		c0.45-0.45,1.09-1.04,1.88-1.74c2.21,2.77,4.93,5.08,8.01,6.79c-0.64,0.6-1.28,1.14-1.93,1.61C57.32,74.57,54.6,72.31,52.42,69.57z
		 M75.23,79.09c-0.64,0.07-1.28,0.11-1.91,0.14c0.44-0.39,0.86-0.82,1.26-1.29c0.19,0,0.38,0.01,0.58,0.01c0.99,0,2-0.06,3.01-0.17
		c2.09-0.24,4.07-0.71,5.94-1.4C81.36,77.8,78.37,78.73,75.23,79.09z"/>
</g>
</svg>
