<svg width="511" height="511" viewBox="0 0 511 511" fill="none" xmlns="http://www.w3.org/2000/svg">
<path d="M378.5 221.5C356 241 277 310.5 222.11 377.81M38.3058 472.428C-11.7901 422.332 -11.7901 340.804 38.3058 290.708C54.6898 274.324 75.1163 262.695 97.4128 257.032L98.232 256.818L99.0334 256.587C136.414 245.741 171.711 225.083 198.406 198.388C228.057 168.736 248.929 131.659 258.813 91.1083C264.832 71.2338 275.553 53.4607 290.726 38.2877C340.822 -11.8081 422.35 -11.8081 472.446 38.2877C522.542 88.3835 522.542 169.912 472.446 220.008C457.576 234.878 439.215 245.937 419.269 252.028C379.716 261.84 342.977 282.872 312.951 312.898C284.796 341.053 264.423 375.353 254.058 412.074L253.72 413.339C248.074 435.617 236.427 456.026 220.043 472.41C169.93 522.524 88.4016 522.524 38.3058 472.428ZM95.0269 457.878C64.4138 427.265 64.4138 377.436 95.027 346.823C105.053 336.797 117.502 329.691 131.072 326.236L132.71 325.809L134.277 325.346C179.672 312.185 222.555 287.004 255.091 254.467C290.816 218.743 316.122 174.097 328.321 125.247C331.989 113.743 338.4 103.378 347.412 94.367C378.025 63.7539 427.853 63.7539 458.467 94.367C489.08 124.98 489.08 174.809 458.467 205.422C449.634 214.255 438.788 220.898 427.07 224.673C379.289 236.837 335.017 262.267 298.954 298.33C264.762 332.523 239.99 374.355 227.31 419.269L226.633 421.798C223.196 435.35 216.073 447.816 206.064 457.824C175.469 488.491 125.64 488.491 95.0269 457.878ZM153.493 446.213C142.362 435.083 142.362 416.954 153.493 405.823C157.144 402.173 161.649 399.59 166.493 398.344L168.969 397.72L171.319 397.044C188.629 392.022 205.601 385.521 222.003 377.703C213.971 394.39 207.382 411.7 202.396 429.402L201.363 433.213C200.134 438.039 197.552 442.545 193.883 446.213C182.753 457.344 164.623 457.344 153.493 446.213ZM378.292 221.628C387.143 202.911 394.231 183.322 399.431 163.127C400.731 159.654 402.85 156.466 405.895 153.421C417.026 142.29 435.155 142.29 446.285 153.421C457.416 164.551 457.416 182.681 446.285 193.811C443.329 196.767 439.767 199.047 435.956 200.471C416.135 205.618 396.831 212.742 378.292 221.628Z" stroke="currentColor" stroke-miterlimit="10"/>
</svg>
