<svg width="127" height="127" viewBox="0 0 127 127" fill="none" xmlns="http://www.w3.org/2000/svg">
<path fill-rule="evenodd" clip-rule="evenodd" d="M95.8646 86.0246C106.525 89.436 115.133 88.5339 119.992 83.675C124.851 78.8161 125.753 70.2078 122.342 59.5474C118.966 48.9977 111.509 37.0198 100.698 26.2087C89.8867 15.3977 77.9088 7.94064 67.3591 4.5647C56.6987 1.15336 48.0904 2.05545 43.2315 6.91431C38.3726 11.7732 37.4706 20.3815 40.8819 31.0419C44.2578 41.5916 51.7149 53.5695 62.5259 64.3806C73.337 75.1917 85.3149 82.6487 95.8646 86.0246ZM61.1117 65.7948C83.0896 87.7727 110.084 96.4111 121.406 85.0892C132.728 73.7673 124.09 46.7724 102.112 24.7945C80.1341 2.81658 53.1392 -5.82182 41.8173 5.5001C30.4954 16.822 39.1338 43.8169 61.1117 65.7948Z" fill="currentColor"/>
<path fill-rule="evenodd" clip-rule="evenodd" d="M123.804 58.2553L39.3871 31.2418L38.7775 29.3369L123.194 56.3505L123.804 58.2553Z" fill="currentColor"/>
<path fill-rule="evenodd" clip-rule="evenodd" d="M94.5723 87.4871L67.5587 3.07017L69.4636 3.67972L96.4771 88.0966L94.5723 87.4871Z" fill="currentColor"/>
<path fill-rule="evenodd" clip-rule="evenodd" d="M49.8571 122.653C58.699 125.482 65.7108 124.692 69.6262 120.776C73.5415 116.861 74.3318 109.849 71.5024 101.007C68.7084 92.2761 62.5271 82.3387 53.5475 73.3591C44.5679 64.3796 34.6306 58.1982 25.8993 55.4042C17.0575 52.5748 10.0457 53.3651 6.13032 57.2804C2.21495 61.1958 1.42467 68.2076 4.25409 77.0495C7.04809 85.7807 13.2294 95.7181 22.209 104.698C31.1886 113.677 41.1259 119.859 49.8571 122.653ZM20.7948 106.112C39.1097 124.427 61.6054 131.625 71.0404 122.191C80.4753 112.756 73.2766 90.2598 54.9617 71.9449C36.6468 53.63 14.151 46.4313 4.7161 55.8662C-4.71883 65.3012 2.47984 87.7969 20.7948 106.112Z" fill="currentColor"/>
<path fill-rule="evenodd" clip-rule="evenodd" d="M73.0385 99.8285L2.69106 77.3172L2.08151 75.4123L72.4289 97.9236L73.0385 99.8285Z" fill="currentColor"/>
<path fill-rule="evenodd" clip-rule="evenodd" d="M48.6787 124.189L26.1674 53.8412L28.0722 54.4507L50.5835 124.798L48.6787 124.189Z" fill="currentColor"/>
<path fill-rule="evenodd" clip-rule="evenodd" d="M4.18795 56.4164L40.1879 7.4164L41.8123 8.58338L5.81237 57.5834L4.18795 56.4164Z" fill="currentColor"/>
<path fill-rule="evenodd" clip-rule="evenodd" d="M69.8235 120.603L119.403 84.2016L120.597 85.7984L71.0177 122.199L69.8235 120.603Z" fill="currentColor"/>
</svg>
