<svg width="206" height="206" viewBox="0 0 206 206" fill="none" xmlns="http://www.w3.org/2000/svg">
<path fill-rule="evenodd" clip-rule="evenodd" d="M188.513 17.5417C169.013 -1.95872 137.275 -1.95872 117.774 17.5417C111.869 23.4467 107.703 30.3525 105.361 38.0711C101.39 54.3402 93.0138 69.2148 81.118 81.1106C70.3953 91.8333 56.2315 100.12 41.233 104.472L41.2319 104.472L40.9012 104.568L40.5633 104.656L40.5571 104.658C31.8795 106.862 23.928 111.388 17.5491 117.767C-1.95127 137.267 -1.95127 169.006 17.5491 188.506C37.0494 208.006 68.7876 208.006 88.2951 188.499C94.6746 182.119 99.2075 174.175 101.404 165.506L101.408 165.493L101.542 164.991L101.546 164.978C105.71 150.225 113.89 136.458 125.185 125.163C137.223 113.125 151.961 104.682 167.839 100.737C175.591 98.3658 182.73 94.064 188.513 88.2806C208.014 68.7802 208.014 37.0421 188.513 17.5417ZM116.36 16.1275C136.642 -4.15398 169.646 -4.15398 189.928 16.1275C210.209 36.4089 210.209 69.4134 189.928 89.6948C183.909 95.7139 176.476 100.191 168.398 102.658L168.373 102.666L168.347 102.672C152.826 106.523 138.398 114.779 126.599 126.578C115.537 137.64 107.539 151.109 103.472 165.515C103.472 165.517 103.471 165.519 103.47 165.521L103.343 165.997C103.342 165.999 103.342 166.001 103.341 166.003C101.055 175.023 96.3391 183.283 89.7094 189.913C69.4209 210.202 36.4164 210.202 16.1349 189.92C-4.14653 169.639 -4.14653 136.634 16.1349 116.353C22.7663 109.721 31.0349 105.013 40.0624 102.72L40.0647 102.719L40.3712 102.639L40.6757 102.551C55.3615 98.2904 69.2275 90.1727 79.7038 79.6964C91.3481 68.0521 99.5435 53.4926 103.424 37.5705L103.431 37.5438L103.439 37.5175C105.878 29.464 110.223 22.2649 116.36 16.1275Z" fill="currentColor"/>
<path fill-rule="evenodd" clip-rule="evenodd" d="M182.963 39.8085C171.198 28.0438 152.046 28.0438 140.282 39.8085C136.818 43.2722 134.364 47.2411 132.957 51.6363C128.066 71.1966 117.93 89.0728 103.625 103.377C90.5849 116.418 73.4106 126.501 55.2299 131.773L55.2264 131.774L54.5937 131.961L53.9219 132.136C48.71 133.463 43.9258 136.193 40.0705 140.048C28.3058 151.813 28.3058 170.964 40.0705 182.729C51.8351 194.494 70.9862 194.493 82.7435 182.708L82.7443 182.708C86.5929 178.859 89.3295 174.068 90.6492 168.864L90.6525 168.852L90.9212 167.847L90.9249 167.834C96.0076 149.83 105.934 133.072 119.627 119.379C134.061 104.945 151.786 94.7575 170.926 89.8791C175.415 88.4276 179.574 85.8784 182.963 82.4894C194.727 70.7248 194.727 51.5731 182.963 39.8085ZM138.867 38.3943C151.413 25.8486 171.831 25.8486 184.377 38.3942C196.923 50.9399 196.923 71.358 184.377 83.9036C180.759 87.5217 176.316 90.2439 171.51 91.7922L171.48 91.8018L171.45 91.8095C152.658 96.5932 135.237 106.597 121.041 120.793C107.583 134.252 97.8385 150.711 92.8515 168.371C92.8509 168.373 92.8503 168.375 92.8496 168.378L92.5879 169.356C92.5873 169.358 92.5868 169.36 92.5863 169.362C91.1761 174.918 88.2568 180.023 84.1594 184.121C71.6206 196.689 51.2019 196.689 38.6562 184.143C26.1106 171.597 26.1106 151.179 38.6562 138.634C42.7621 134.528 47.8621 131.615 53.4253 130.198L53.4285 130.198L54.0578 130.033L54.6646 129.854L54.6695 129.853C72.5359 124.673 89.4144 114.76 102.211 101.963C116.268 87.9063 126.225 70.3396 131.024 51.1203L131.032 51.0893L131.042 51.0588C132.55 46.3301 135.183 42.0785 138.867 38.3943Z" fill="currentColor"/>
<path fill-rule="evenodd" clip-rule="evenodd" d="M178.126 63.2561C174.097 59.2272 167.532 59.2272 163.503 63.2561C162.394 64.365 161.644 65.4974 161.184 66.7051C159.334 73.8765 156.889 80.8571 153.884 87.572C160.522 84.5584 167.393 82.1065 174.429 80.2763C175.79 79.7597 177.065 78.9397 178.126 77.8791C182.155 73.8502 182.155 67.285 178.126 63.2561ZM162.089 61.8419C166.899 57.032 174.73 57.032 179.54 61.8419C184.35 66.6519 184.35 74.4834 179.54 79.2933C178.265 80.568 176.73 81.5515 175.082 82.1675L175.033 82.1856L174.983 82.1987C167.177 84.2255 159.573 87.0314 152.268 90.533L149.727 91.7509L150.932 89.2037C154.419 81.8293 157.212 74.1107 159.261 66.1534L159.274 66.1019L159.293 66.0522C159.866 64.5203 160.794 63.1366 162.089 61.8419ZM91.9123 149.478L90.6811 152.036C87.5173 158.609 84.9223 165.426 82.9588 172.395L82.9574 172.4L82.5538 173.889C82.5531 173.892 82.5525 173.894 82.5518 173.897C82.0173 175.99 80.8995 177.934 79.322 179.512C74.512 184.321 66.6805 184.321 61.8706 179.512C57.0606 174.702 57.0606 166.87 61.8706 162.06C63.4437 160.487 65.3897 159.37 67.4903 158.829L67.4954 158.828L68.462 158.584L69.3772 158.321C76.1966 156.342 82.8847 153.781 89.3498 150.699L91.9123 149.478ZM87.7089 153.667C81.9298 156.28 75.9845 158.486 69.9344 160.242L69.9325 160.242L68.9829 160.516L67.9888 160.766L67.9864 160.766C66.2412 161.216 64.6102 162.149 63.2848 163.474C59.2559 167.503 59.2559 174.068 63.2848 178.097C67.3137 182.126 73.8789 182.126 77.9077 178.097C79.2415 176.764 80.1735 175.132 80.6156 173.396L80.6175 173.388L81.0296 171.868L81.0323 171.858C82.7805 165.652 85.0206 159.567 87.7089 153.667Z" fill="currentColor"/>
<path fill-rule="evenodd" clip-rule="evenodd" d="M89.1155 150.937L151.129 88.9239L152.543 90.3381L90.5297 152.351L89.1155 150.937Z" fill="currentColor"/>
</svg>
