<svg width="158" height="194" viewBox="0 0 158 194" fill="none" xmlns="http://www.w3.org/2000/svg">
<path fill-rule="evenodd" clip-rule="evenodd" d="M0.542531 66.3806C-0.0910236 65.4758 0.128872 64.2287 1.03368 63.5951L91.0823 0.542409C91.9871 -0.0911452 93.2342 0.12875 93.8678 1.03356L156.92 91.0822C157.554 91.987 157.334 93.2341 156.429 93.8676L66.3807 156.92C65.4759 157.554 64.2288 157.334 63.5953 156.429L0.542531 66.3806ZM2.18084 65.2334L65.2336 155.282L155.282 92.2293L92.2295 2.18071L2.18084 65.2334Z" fill="currentColor"/>
<path fill-rule="evenodd" clip-rule="evenodd" d="M47.146 32.0607C47.5982 31.7436 48.2218 31.8531 48.5389 32.3053L111.748 122.447C112.065 122.899 111.956 123.523 111.503 123.84C111.051 124.157 110.428 124.048 110.11 123.596L46.9014 33.4536C46.5843 33.0014 46.6938 32.3778 47.146 32.0607Z" fill="currentColor"/>
<path fill-rule="evenodd" clip-rule="evenodd" d="M110.936 122.191C111.475 122.31 111.816 122.844 111.697 123.383L103.111 162.262C102.992 162.801 102.458 163.142 101.919 163.023C101.38 162.903 101.039 162.37 101.158 161.83L109.744 122.952C109.863 122.413 110.396 122.072 110.936 122.191Z" fill="currentColor"/>
<path fill-rule="evenodd" clip-rule="evenodd" d="M1.56073 111.661C0.927173 110.756 1.14707 109.509 2.05188 108.875L83.0956 52.1277C84.0005 51.4941 85.2476 51.714 85.8811 52.6188L142.629 133.663C143.262 134.567 143.042 135.814 142.137 136.448L61.0936 193.195C60.1888 193.829 58.9417 193.609 58.3082 192.704L1.56073 111.661ZM3.19903 110.513L59.9465 191.557L140.99 134.81L84.2428 53.766L3.19903 110.513Z" fill="currentColor"/>
<path fill-rule="evenodd" clip-rule="evenodd" d="M2.00017 64.7589C2.55246 64.7589 3.00017 65.2066 3.00017 65.7589V109.929C3.00017 110.481 2.55246 110.929 2.00017 110.929C1.44789 110.929 1.00017 110.481 1.00017 109.929V65.7589C1.00017 65.2066 1.44789 64.7589 2.00017 64.7589Z" fill="currentColor"/>
<path fill-rule="evenodd" clip-rule="evenodd" d="M156.941 92.579C157.461 92.7656 157.731 93.3382 157.545 93.8581L142.83 134.848C142.644 135.368 142.071 135.638 141.551 135.451C141.031 135.265 140.761 134.692 140.948 134.172L155.662 93.1823C155.849 92.6625 156.422 92.3924 156.941 92.579Z" fill="currentColor"/>
<path fill-rule="evenodd" clip-rule="evenodd" d="M59.1086 192.165C58.5629 192.08 58.1897 191.569 58.275 191.023L63.7715 155.846C63.8568 155.3 64.3683 154.927 64.9139 155.012C65.4596 155.097 65.8328 155.609 65.7476 156.154L60.251 191.332C60.1657 191.877 59.6543 192.251 59.1086 192.165Z" fill="currentColor"/>
<path fill-rule="evenodd" clip-rule="evenodd" d="M93.2271 1.16781C93.7716 1.26049 94.1378 1.77698 94.0451 2.32143L85.5864 52.0165C85.4937 52.5609 84.9772 52.9272 84.4328 52.8345C83.8883 52.7418 83.5221 52.2253 83.6148 51.6809L92.0735 1.98583C92.1662 1.44138 92.6827 1.07514 93.2271 1.16781Z" fill="currentColor"/>
<path fill-rule="evenodd" clip-rule="evenodd" d="M44.9716 80.149L47.1702 32.8795L49.168 32.9724L46.9695 80.2419L44.9716 80.149Z" fill="currentColor"/>
<path fill-rule="evenodd" clip-rule="evenodd" d="M101.035 162.596L44.9716 80.149L46.6252 79.0243L102.689 161.471L101.035 162.596Z" fill="currentColor"/>
</svg>
