<svg width="143" height="285" viewBox="0 0 143 285" fill="none" xmlns="http://www.w3.org/2000/svg">
<path d="M71.3598 264.11C43.2298 264.11 20.3398 241.22 20.3398 213.09C20.3398 203.89 22.8098 194.89 27.4798 187.04L27.6498 186.75L27.8098 186.46C35.2598 172.92 39.3698 157.21 39.3698 142.22C39.3698 125.57 34.8198 109.3 26.2098 95.1401C22.3198 87.8701 20.3398 79.8701 20.3398 71.3501C20.3398 43.2201 43.2298 20.3301 71.3598 20.3301C99.4898 20.3301 122.38 43.2201 122.38 71.3501C122.38 79.7001 120.33 87.9601 116.44 95.2701C108.09 109.13 103.68 125.35 103.68 142.21C103.68 158.02 107.59 173.37 114.99 186.59L115.25 187.04C119.92 194.88 122.38 203.88 122.38 213.08C122.38 241.22 99.4898 264.11 71.3598 264.11Z" stroke="currentColor" stroke-miterlimit="10"/>
<path d="M83.2 244.1C66.01 244.1 52.02 230.11 52.02 212.92C52.02 207.29 53.52 201.8 56.36 197.02L56.7 196.44L57.01 195.87C66.06 179.43 71.03 160.32 71.03 142.05C71.03 121.99 65.6 102.35 55.31 85.21C53.11 80.95 52 76.24 52 71.18C52 53.99 65.99 40 83.18 40C100.37 40 114.36 53.99 114.36 71.18C114.36 76.14 113.18 81.05 110.95 85.4C100.95 102.23 95.66 121.8 95.66 142.05C95.66 161.25 100.45 179.95 109.5 196.12L110.02 197.02C112.86 201.79 114.36 207.29 114.36 212.91C114.38 230.11 100.39 244.1 83.2 244.1Z" stroke="currentColor" stroke-miterlimit="10"/>
<path d="M96.34 224.41C90.09 224.41 85 219.32 85 213.07C85 211.02 85.54 209.03 86.55 207.32L87.07 206.45L87.54 205.6C90.99 199.33 93.93 192.74 96.34 185.94C98.77 192.88 101.78 199.59 105.35 205.96L106.13 207.32C107.14 209.02 107.68 211.01 107.68 213.07C107.68 219.32 102.59 224.41 96.34 224.41ZM96.4 98.24C93.63 90.5 90.12 83.01 85.91 75.88C85.3 74.54 85 73.05 85 71.34C85 65.09 90.09 60 96.34 60C102.59 60 107.68 65.09 107.68 71.34C107.68 73 107.32 74.64 106.65 76.11C102.53 83.12 99.11 90.54 96.4 98.24Z" stroke="currentColor" stroke-miterlimit="10"/>
<path d="M96.3999 98.2397V185.94" stroke="currentColor" stroke-miterlimit="10"/>
</svg>
