<svg width="142" height="142" viewBox="0 0 142 142" fill="none" xmlns="http://www.w3.org/2000/svg">
<path fill-rule="evenodd" clip-rule="evenodd" d="M71.0087 2.88623C33.3858 2.88623 2.88641 33.3856 2.88641 71.0085C2.88641 108.631 33.3858 139.131 71.0087 139.131C108.632 139.131 139.131 108.631 139.131 71.0085C139.131 33.3856 108.632 2.88623 71.0087 2.88623ZM0.886414 71.0085C0.886414 32.281 32.2812 0.88623 71.0087 0.88623C109.736 0.88623 141.131 32.281 141.131 71.0085C141.131 109.736 109.736 141.131 71.0087 141.131C32.2812 141.131 0.886414 109.736 0.886414 71.0085Z" fill="currentColor"/>
<path fill-rule="evenodd" clip-rule="evenodd" d="M112.727 16.984C101.408 8.62521 88.4299 4.37197 79.8937 5.1416C47.7183 8.06664 27.367 32.2662 30.7758 62.5366C34.1902 92.8561 61.5218 114.673 91.8403 111.259C107.024 109.557 118.708 102.75 126.168 92.502C133.634 82.2432 136.934 68.4447 135.157 52.6623C133.46 37.5981 124.019 25.322 112.727 16.984ZM113.916 15.3751C125.496 23.9266 135.366 36.6523 137.145 52.4385C138.966 68.6188 135.599 82.9421 127.785 93.6789C119.962 104.426 107.748 111.489 92.0641 113.246C60.647 116.784 32.3262 94.1765 28.7884 62.7604C25.245 31.2953 46.5027 6.1689 79.7127 3.14981C88.9046 2.32073 102.363 6.84458 113.916 15.3751Z" fill="currentColor"/>
<path fill-rule="evenodd" clip-rule="evenodd" d="M76.8987 25.7819C62.5562 32.7816 56.8268 50.7334 64.2428 65.9288C71.6587 81.1243 89.3355 87.653 103.678 80.6533C118.021 73.6536 123.75 55.7018 116.334 40.5064C108.918 25.3109 91.2411 18.7822 76.8987 25.7819ZM62.4454 66.806C54.587 50.7042 60.6021 31.5097 76.0214 23.9845C91.4408 16.4593 110.273 23.5273 118.131 39.6292C125.99 55.731 119.975 74.9255 104.555 82.4507C89.1359 89.976 70.3037 82.9079 62.4454 66.806Z" fill="currentColor"/>
<path fill-rule="evenodd" clip-rule="evenodd" d="M91.809 49.617C91.8097 49.6169 91.8101 49.6168 91.9696 50.604C92.129 51.5912 92.1289 51.5912 92.1285 51.5913L92.0809 51.5991L91.9339 51.6233C91.8035 51.645 91.6091 51.6776 91.3542 51.7213C90.8445 51.8086 90.0931 51.9398 89.1292 52.1154C87.2012 52.4664 84.4235 52.9944 81.0296 53.7012C74.2403 55.1153 64.9914 57.2439 55.1476 60.1025C45.3 62.9622 34.8794 66.5461 25.7379 70.8657C16.5751 75.1954 8.79754 80.2183 4.13758 85.9115L2.58992 84.6447C7.53268 78.6061 15.6322 73.4289 24.8835 69.0574C34.1561 64.6759 44.6866 61.0577 54.5898 58.1819C64.4968 55.3049 73.7983 53.1644 80.6218 51.7433C84.0342 51.0325 86.8285 50.5014 88.7709 50.1477C89.7421 49.9709 90.5005 49.8384 91.0167 49.75C91.2748 49.7058 91.4725 49.6726 91.6059 49.6504L91.7575 49.6254L91.809 49.617Z" fill="currentColor"/>
<path fill-rule="evenodd" clip-rule="evenodd" d="M92.6514 49.8726C92.6519 49.873 92.6522 49.8733 91.9696 50.604C91.2869 51.3347 91.287 51.3349 91.2869 51.3348L91.2817 51.3299L91.2629 51.3125L91.1854 51.2411C91.1161 51.1775 91.0118 51.0823 90.8738 50.9578C90.5976 50.7088 90.1865 50.3428 89.6506 49.8782C88.5786 48.9491 87.0077 47.6264 85.0188 46.0584C81.0396 42.9213 75.395 38.8086 68.7323 34.9031C55.3597 27.0644 38.0937 20.1837 22.0011 23.4107L21.6078 21.4498C38.4512 18.0722 56.2678 25.2784 69.7437 33.1777C76.5053 37.1412 82.2265 41.3103 86.257 44.4878C88.273 46.0771 89.8679 47.4199 90.9605 48.3669C91.5069 48.8405 91.9278 49.2152 92.2131 49.4724C92.3557 49.601 92.4645 49.7003 92.5381 49.7679L92.622 49.8452L92.6439 49.8655L92.6514 49.8726Z" fill="currentColor"/>
<path fill-rule="evenodd" clip-rule="evenodd" d="M92.9691 50.5754C92.9692 50.5759 92.9692 50.5761 91.9696 50.604C90.97 50.6319 90.9699 50.632 90.9699 50.6318L90.9697 50.6253L90.9691 50.6029L90.9662 50.5119C90.9635 50.431 90.9593 50.3101 90.9532 50.1517C90.941 49.8348 90.9213 49.3681 90.8912 48.7715C90.831 47.5782 90.7293 45.8661 90.5638 43.796C90.2324 39.6535 89.6458 34.0885 88.6258 28.3832C87.6039 22.668 86.1554 16.8606 84.1172 12.2098C82.0566 7.50766 79.5037 4.242 76.4234 3.19867L77.065 1.30439C80.9891 2.6335 83.8416 6.59813 85.949 11.407C88.0789 16.2671 89.5611 22.2512 90.5945 28.0312C91.6297 33.8208 92.2229 39.4544 92.5574 43.6365C92.7247 45.7288 92.8276 47.4607 92.8886 48.6707C92.9192 49.2758 92.9393 49.7505 92.9517 50.0748C92.958 50.2369 92.9623 50.3615 92.9651 50.4459L92.9682 50.5421L92.9689 50.567L92.9691 50.5754Z" fill="currentColor"/>
<path fill-rule="evenodd" clip-rule="evenodd" d="M92.5895 51.3885C92.5893 51.3887 92.5892 51.3889 91.9696 50.604C91.3499 49.8191 91.35 49.8189 91.3503 49.8187L91.4307 49.7553L91.6649 49.5712C91.8702 49.41 92.1717 49.1739 92.5572 48.8732C93.3281 48.2719 94.4352 47.4124 95.7806 46.3794C98.4711 44.3137 102.117 41.5518 105.937 38.7698C109.754 35.9897 113.756 33.1807 117.156 31.025C118.855 29.9479 120.418 29.0245 121.741 28.3476C123.024 27.6911 124.204 27.2004 125.091 27.1022L125.311 29.09C124.825 29.1438 123.937 29.4706 122.652 30.1281C121.406 30.7653 119.901 31.6526 118.227 32.7141C114.881 34.8357 110.919 37.6156 107.114 40.3864C103.313 43.1553 99.6809 45.9063 96.9986 47.9657C95.6577 48.9953 94.5547 49.8515 93.7872 50.4502C93.4035 50.7495 93.1037 50.9844 92.8999 51.1444L92.6679 51.3267L92.5895 51.3885Z" fill="currentColor"/>
<path fill-rule="evenodd" clip-rule="evenodd" d="M91.7519 51.58L91.9696 50.604C92.1872 49.628 92.1876 49.6281 92.1882 49.6282L92.1967 49.6301L92.2212 49.6357L92.3142 49.657C92.3953 49.6758 92.5146 49.7039 92.6696 49.7413C92.9795 49.8161 93.4324 49.9285 94.0094 50.0799C95.1633 50.3825 96.8144 50.8413 98.8117 51.4677C102.804 52.7197 108.192 54.6451 113.763 57.338C124.827 62.6857 136.953 71.2229 139.871 83.8184L137.923 84.2698C135.227 72.6368 123.889 64.454 112.893 59.1387C107.434 56.5002 102.143 54.6084 98.2133 53.3761C96.2498 52.7603 94.6293 52.3101 93.502 52.0144C92.9384 51.8666 92.4982 51.7574 92.2002 51.6854C92.0512 51.6495 91.9378 51.6228 91.8623 51.6053L91.7778 51.5859L91.7574 51.5813L91.7519 51.58Z" fill="currentColor"/>
<path fill-rule="evenodd" clip-rule="evenodd" d="M91.0607 51.0211C91.0606 51.0208 91.0605 51.0208 91.9696 50.604C92.8786 50.1872 92.8787 50.1876 92.879 50.1882L92.8839 50.1989L92.8986 50.2311L92.9552 50.356C93.0048 50.4659 93.0778 50.6284 93.1721 50.841C93.3609 51.2662 93.6353 51.8914 93.9792 52.6949C94.667 54.3018 95.6331 56.6223 96.7488 59.4821C98.9795 65.2 101.812 73.0827 104.213 81.7344C106.613 90.3808 108.592 99.8267 109.099 108.663C109.605 117.479 108.656 125.813 105.076 132.142L103.335 131.157C106.638 125.319 107.6 117.44 107.103 108.778C106.606 100.137 104.666 90.8427 102.286 82.2693C99.9077 73.7013 97.0999 65.8851 94.8856 60.209C93.7787 57.3718 92.821 55.0715 92.1406 53.4819C91.8004 52.6871 91.5296 52.0701 91.3442 51.6527C91.2516 51.4439 91.1803 51.2851 91.1323 51.1789L91.0781 51.0593L91.0647 51.0298L91.0607 51.0211Z" fill="currentColor"/>
<path fill-rule="evenodd" clip-rule="evenodd" d="M91.0439 50.2256C91.0441 50.2252 91.0441 50.2251 91.9696 50.604C92.895 50.9829 92.8948 50.9833 92.8946 50.9839L92.8752 51.0311L92.8176 51.1704C92.7668 51.293 92.6913 51.4747 92.5918 51.712C92.3927 52.1867 92.0978 52.8842 91.7134 53.7776C90.9445 55.5644 89.8173 58.1355 88.3825 61.2765C85.5132 67.5575 81.4113 76.1225 76.4815 85.2556C71.553 94.3862 65.7889 104.1 59.5936 112.672C53.4082 121.23 46.7474 128.715 40.0105 133.326L38.8809 131.676C45.3358 127.258 51.8363 119.991 57.9726 111.5C64.099 103.024 69.8169 93.3919 74.7215 84.3056C79.6247 75.2218 83.7068 66.6985 86.5633 60.4454C87.9913 57.3194 89.1125 54.762 89.8762 52.9871C90.2581 52.0997 90.5506 51.4079 90.7473 50.9387C90.8457 50.704 90.9202 50.525 90.9699 50.405L91.0258 50.2695L91.0439 50.2256Z" fill="currentColor"/>
</svg>
