<svg width="135" height="131" viewBox="0 0 135 131" fill="none" xmlns="http://www.w3.org/2000/svg">
<path fill-rule="evenodd" clip-rule="evenodd" d="M0.555908 20.3323L134.652 19.184L109.351 132.258L0.555908 20.3323ZM108.207 128.212L132.15 21.2055L5.25012 22.2921L108.207 128.212Z" fill="currentColor"/>
<path fill-rule="evenodd" clip-rule="evenodd" d="M90.6028 1.79776L109.768 130.087L107.79 130.382L88.6247 2.09325L90.6028 1.79776Z" fill="currentColor"/>
<path fill-rule="evenodd" clip-rule="evenodd" d="M89.9984 1.0225L133.786 19.2717L133.016 21.1178L89.229 2.86858L89.9984 1.0225Z" fill="currentColor"/>
<path fill-rule="evenodd" clip-rule="evenodd" d="M89.8317 2.92151L3.12098 22.2882L2.68503 20.3363L89.3958 0.969604L89.8317 2.92151Z" fill="currentColor"/>
<path fill-rule="evenodd" clip-rule="evenodd" d="M105.604 20.6468L87.4901 107.524L85.5322 107.116L103.646 20.2386L105.604 20.6468Z" fill="currentColor"/>
<path fill-rule="evenodd" clip-rule="evenodd" d="M104.113 21.3018L77.432 5.40764L78.4556 3.68941L105.137 19.5836L104.113 21.3018Z" fill="currentColor"/>
<path fill-rule="evenodd" clip-rule="evenodd" d="M75.9432 20.6915L62.3052 81.6423L60.3535 81.2056L73.9915 20.2548L75.9432 20.6915Z" fill="currentColor"/>
<path fill-rule="evenodd" clip-rule="evenodd" d="M74.2835 21.2028L61.1375 8.88183L62.5052 7.42257L75.6512 19.7435L74.2835 21.2028Z" fill="currentColor"/>
<path fill-rule="evenodd" clip-rule="evenodd" d="M78.9403 4.46544L87.5077 107.237L85.5146 107.403L76.9473 4.63159L78.9403 4.46544Z" fill="currentColor"/>
<path fill-rule="evenodd" clip-rule="evenodd" d="M62.8213 8.15888L62.3293 81.4307L60.3294 81.4173L60.8214 8.14546L62.8213 8.15888Z" fill="currentColor"/>
</svg>
